<svg width="298" height="93" viewBox="0 0 298 93" fill="none" xmlns="http://www.w3.org/2000/svg">
<g clip-path="url(#clip0_5376_25554)">
<path d="M135.991 -0.145448C136.094 -0.147144 136.197 -0.14884 136.303 -0.150587C139.844 -0.197895 143.295 0.0651306 146.667 1.22217C146.825 1.2743 146.825 1.2743 146.987 1.32748C150.344 2.43644 153.451 4.02251 156.222 6.22217C156.333 6.30897 156.443 6.39577 156.557 6.48519C158.19 7.79428 159.701 9.24715 161 10.8888C161.07 10.9725 161.14 11.0561 161.213 11.1423C164.681 15.3098 166.847 20.7511 167.445 26.1111C167.455 26.1928 167.465 26.2745 167.476 26.3587C167.591 27.3819 167.576 28.4114 167.576 29.4397C167.577 29.7666 167.579 30.0934 167.581 30.4203C167.586 32.1838 167.506 33.9515 167.132 35.6805C167.113 35.7716 167.094 35.8626 167.074 35.9564C165.864 41.5778 163.223 46.7506 159.222 50.8888C159.152 50.9614 159.082 51.034 159.01 51.1088C158.123 52.0215 157.232 52.8898 156.222 53.6666C156.063 53.7953 156.063 53.7953 155.901 53.9266C154.877 54.7416 153.788 55.4387 152.667 56.1111C152.536 56.1895 152.536 56.1895 152.403 56.2696C150.824 57.2084 149.159 57.9015 147.445 58.5555C147.34 58.5958 147.235 58.636 147.127 58.6775C146.419 58.9432 145.707 59.1527 144.972 59.3333C144.801 59.3757 144.801 59.3757 144.626 59.4189C143.827 59.6116 143.025 59.7794 142.215 59.9236C142.069 59.9501 142.069 59.9501 141.92 59.9772C140.4 60.2338 138.857 60.2485 137.32 60.25C137.183 60.2502 137.183 60.2502 137.043 60.2504C134.749 60.2496 132.461 60.088 130.222 59.5555C130.045 59.5175 129.868 59.4798 129.691 59.4422C123.424 58.0792 117.407 54.2693 113.445 49.2222C113.348 49.1034 113.251 48.9848 113.154 48.8663C109.617 44.5077 107.509 39.1129 106.889 33.5555C106.879 33.4685 106.868 33.3814 106.857 33.2918C106.071 25.9751 107.972 18.4952 112.333 12.5555C112.38 12.4924 112.426 12.4294 112.474 12.3644C114 10.2982 115.735 8.34474 117.778 6.77773C117.921 6.66511 118.064 6.5524 118.206 6.43962C120.804 4.40178 123.665 2.78265 126.778 1.66662C126.861 1.63634 126.945 1.60607 127.03 1.57488C129.891 0.545891 132.947 -0.0958819 135.991 -0.145448Z" fill="black"/>
<path d="M55.5557 0.777832C82.083 0.777832 82.083 0.777832 84.0557 1.18061C84.145 1.19884 84.2344 1.21706 84.3264 1.23584C88.1719 2.0649 91.5774 3.63043 94.4445 6.33339C94.5332 6.4136 94.6219 6.4938 94.7132 6.57644C96.7129 8.4585 98.0323 11.0521 98.7779 13.6667C98.8115 13.7759 98.8452 13.885 98.8799 13.9974C100.19 18.6112 99.6834 24.2745 97.4055 28.494C96.8743 29.4425 96.2804 30.2979 95.5557 31.1112C95.4759 31.2043 95.3961 31.2974 95.3139 31.3933C94.3046 32.5514 93.1838 33.5078 91.889 34.3334C91.8182 34.3787 91.7475 34.4239 91.6746 34.4706C90.5292 35.1945 89.353 35.7539 88.0907 36.2442C87.8585 36.34 87.8585 36.34 87.5557 36.5556C88.4438 38.1548 89.3455 39.7444 90.2705 41.3225C90.6838 42.0279 91.0922 42.736 91.5001 43.4445C92.0344 44.3721 92.5711 45.2981 93.1112 46.2223C93.8609 47.5053 94.6038 48.7922 95.3455 50.0798C95.6931 50.683 96.0411 51.286 96.389 51.8889C96.8072 52.6136 97.2253 53.3384 97.6429 54.0634C97.7828 54.3062 97.9227 54.549 98.0626 54.7917C98.1306 54.9098 98.1986 55.0278 98.2686 55.1494C98.6207 55.76 98.9747 56.3694 99.3317 56.977C99.4031 57.0987 99.4745 57.2204 99.548 57.3457C99.6839 57.577 99.8201 57.8081 99.9567 58.039C100.018 58.1426 100.078 58.2462 100.141 58.3529C100.221 58.4885 100.221 58.4885 100.303 58.6269C100.447 58.8934 100.557 59.1626 100.667 59.4445C98.9292 59.4783 97.1918 59.5037 95.454 59.5193C94.6471 59.5268 93.8403 59.5369 93.0335 59.5535C92.33 59.5679 91.6266 59.5772 90.923 59.5804C90.5504 59.5823 90.1786 59.5874 89.8062 59.5972C87.54 59.6544 87.54 59.6544 87.0149 59.3074C86.6503 58.9281 86.5006 58.4952 86.3334 58C86.199 57.7574 86.0604 57.517 85.9163 57.28C85.7751 57.0317 85.634 56.7833 85.4932 56.5348C85.337 56.2603 85.1807 55.9858 85.0244 55.7114C84.9852 55.6425 84.946 55.5736 84.9056 55.5026C84.5115 54.8105 84.1138 54.1203 83.7154 53.4306C83.6471 53.3124 83.5789 53.1942 83.5085 53.0725C83.3709 52.8342 83.2332 52.5959 83.0955 52.3576C82.7486 51.7571 82.4022 51.1563 82.0557 50.5556C81.9168 50.3149 81.7779 50.0741 81.639 49.8334C81.3612 49.3519 81.0834 48.8704 80.8057 48.3889C80.7369 48.2698 80.6682 48.1506 80.5974 48.0279C80.4584 47.787 80.3194 47.546 80.1804 47.3051C79.8348 46.7059 79.489 46.1068 79.1429 45.5079C79.005 45.2692 78.8671 45.0304 78.7293 44.7917C78.6613 44.674 78.5933 44.5563 78.5233 44.435C78.1553 43.7972 77.7887 43.1585 77.4242 42.5187C77.3854 42.4508 77.3467 42.3829 77.3069 42.3129C77.1528 42.0425 76.9987 41.7722 76.8448 41.5017C76.333 40.603 75.8118 39.7119 75.2675 38.8325C75.1112 38.5556 75.1112 38.5556 75.1112 38.3334C72.6546 38.3334 70.1979 38.3334 67.6668 38.3334C67.6668 45.3001 67.6668 52.2667 67.6668 59.4445C63.6701 59.4445 59.6734 59.4445 55.5557 59.4445C55.5557 40.0845 55.5557 20.7245 55.5557 0.777832Z" fill="black"/>
<path d="M177.667 0.777756C181.627 0.777756 185.587 0.777756 189.667 0.777756C189.703 9.13775 189.74 17.4978 189.778 26.1111C190.88 24.7631 190.88 24.7631 191.944 23.3889C192.477 22.685 193.025 21.9957 193.584 21.3125C194.127 20.6494 194.657 19.9771 195.184 19.302C195.437 18.9786 195.691 18.656 195.944 18.3333C196.249 17.9459 196.553 17.5584 196.857 17.1705C197.438 16.4291 198.024 15.6914 198.613 14.9564C199.14 14.2979 199.662 13.6347 200.182 12.9704C200.487 12.5817 200.792 12.1935 201.097 11.8053C201.351 11.4828 201.604 11.1601 201.857 10.8372C202.438 10.0958 203.024 9.35803 203.613 8.62308C204.14 7.96454 204.662 7.30132 205.182 6.63708C205.487 6.24837 205.792 5.8602 206.097 5.47193C206.351 5.14942 206.604 4.82679 206.857 4.50388C207.447 3.7515 208.04 3.00223 208.64 2.25825C208.692 2.19393 208.744 2.12961 208.797 2.06335C208.847 2.00342 208.896 1.94349 208.947 1.88175C209.116 1.67149 209.116 1.67149 209.236 1.43701C209.463 1.04861 209.634 0.816127 210.079 0.697313C210.469 0.668044 210.85 0.667855 211.24 0.676844C211.389 0.677095 211.538 0.676954 211.687 0.676451C212.091 0.676196 212.493 0.681412 212.897 0.687628C213.318 0.693194 213.74 0.693707 214.162 0.694761C214.96 0.697521 215.758 0.704811 216.556 0.713739C217.465 0.723683 218.373 0.728564 219.282 0.733023C221.151 0.742308 223.02 0.757937 224.889 0.777756C224.691 1.11049 224.496 1.42353 224.25 1.72177C224.192 1.79217 224.134 1.86258 224.075 1.93512C224.013 2.00923 223.952 2.08334 223.889 2.1597C223.758 2.31905 223.627 2.47848 223.497 2.638C223.432 2.7176 223.367 2.7972 223.299 2.87921C223.027 3.21497 222.759 3.55486 222.493 3.89581C222.017 4.50432 221.536 5.10833 221.053 5.71075C220.683 6.17285 220.316 6.63763 219.951 7.10414C219.451 7.744 218.94 8.3749 218.426 9.00429C218.038 9.48046 217.656 9.96033 217.278 10.4444C216.78 11.0822 216.271 11.7107 215.759 12.3377C215.371 12.8138 214.989 13.2937 214.611 13.7778C214.113 14.4155 213.604 15.0441 213.093 15.671C212.705 16.1471 212.322 16.627 211.944 17.1111C211.446 17.7489 210.938 18.3774 210.426 19.0043C210.038 19.4805 209.656 19.9603 209.278 20.4444C208.78 21.0822 208.271 21.7107 207.759 22.3377C207.371 22.8138 206.989 23.2937 206.611 23.7778C206.114 24.4147 205.606 25.0425 205.095 25.6685C204.637 26.2297 204.188 26.7964 203.743 27.3676C203.356 27.8637 203.356 27.8637 203.171 28.0654C202.993 28.2561 202.993 28.2561 202.778 28.5555C202.816 28.8892 202.94 29.1054 203.14 29.3698C203.193 29.4394 203.245 29.509 203.299 29.5807C203.356 29.6549 203.413 29.7291 203.472 29.8055C203.531 29.8837 203.591 29.9619 203.652 30.0425C204.13 30.6685 204.626 31.2796 205.126 31.8883C205.603 32.471 206.057 33.0689 206.505 33.6737C206.94 34.2585 207.391 34.8287 207.849 35.396C208.25 35.8946 208.643 36.399 209.032 36.9075C209.361 37.3368 209.693 37.7629 210.028 38.1875C210.696 39.0364 211.359 39.8895 212.022 40.7428C212.348 41.162 212.674 41.581 213 42C213.393 42.5051 213.786 43.0102 214.178 43.5156C214.765 44.271 215.353 45.0261 215.944 45.7778C216.603 46.6152 217.257 47.4567 217.911 48.2984C218.237 48.7175 218.563 49.1365 218.889 49.5555C219.018 49.7222 219.148 49.8889 219.278 50.0555C219.374 50.1793 219.374 50.1793 219.472 50.3055C220.055 51.0555 220.055 51.0555 220.25 51.3056C220.379 51.4719 220.509 51.6383 220.638 51.8046C220.966 52.2267 221.295 52.6488 221.623 53.0712C222.258 53.8884 222.894 54.7047 223.534 55.518C224.148 56.2982 224.757 57.0819 225.365 57.867C225.501 58.0409 225.638 58.2138 225.775 58.386C225.846 58.4756 225.918 58.5652 225.991 58.6575C226.057 58.7391 226.122 58.8206 226.189 58.9046C226.333 59.1111 226.333 59.1111 226.333 59.3333C224.322 59.3619 222.311 59.3834 220.3 59.3966C219.367 59.4029 218.433 59.4115 217.499 59.4255C216.685 59.4377 215.871 59.4456 215.057 59.4483C214.626 59.4499 214.195 59.4536 213.764 59.4625C213.358 59.4709 212.952 59.4734 212.546 59.4716C212.327 59.472 212.108 59.4786 211.889 59.4854C211.301 59.4779 210.929 59.4642 210.474 59.0698C210.218 58.7608 209.995 58.4477 209.778 58.1111C209.651 57.94 209.523 57.7696 209.394 57.6002C209.274 57.4351 209.154 57.2697 209.035 57.1041C208.441 56.2902 207.831 55.4903 207.21 54.6969C206.783 54.1505 206.363 53.5993 205.949 53.0429C205.562 52.5256 205.169 52.0133 204.778 51.5C204.236 50.7904 203.697 50.0795 203.163 49.3646C202.778 48.8518 202.389 48.3429 202 47.8333C201.535 47.2237 201.07 46.6142 200.611 46C200.159 45.395 199.701 44.7947 199.243 44.1944C198.715 43.5021 198.188 42.8087 197.667 42.1111C197.159 41.4321 196.646 40.7571 196.132 40.0833C195.533 39.2991 194.938 38.5122 194.347 37.7222C193.819 37.0162 193.287 36.3137 192.748 35.6159C192.344 35.0925 191.943 34.5671 191.542 34.0416C191.468 33.9462 191.395 33.8507 191.32 33.7524C190.795 33.0641 190.287 32.3672 189.778 31.6666C189.741 40.8333 189.704 50 189.667 59.4444C185.707 59.4444 181.747 59.4444 177.667 59.4444C177.667 40.0844 177.667 20.7244 177.667 0.777756Z" fill="black"/>
<path d="M275.75 -0.159745C275.848 -0.159333 275.946 -0.158921 276.047 -0.158497C282.279 -0.121585 288.133 1.81616 292.6 6.26218C293.03 6.70335 293.41 7.17352 293.778 7.66664C293.822 7.72442 293.865 7.78219 293.911 7.84172C296.556 11.3362 296.556 11.3362 296.556 12.5555C296.488 12.5917 296.421 12.6279 296.351 12.6652C295.116 13.3294 293.884 13.9984 292.667 14.6944C291.458 15.3841 290.231 16.0371 289 16.6863C288.927 16.7248 288.854 16.7633 288.779 16.803C288.637 16.8778 288.495 16.9525 288.353 17.0271C287.886 17.2736 287.425 17.53 286.97 17.7986C286.778 17.8889 286.778 17.8889 286.444 17.8889C286.392 17.776 286.339 17.6631 286.285 17.5469C285.801 16.5296 285.277 15.6487 284.556 14.7778C284.479 14.6821 284.403 14.5864 284.325 14.4878C282.754 12.6146 280.532 11.7092 278.222 11.1111C278.107 11.0812 277.992 11.0512 277.874 11.0204C275.432 10.5107 272.419 10.7959 270.292 12.1319C269.105 12.918 268.234 13.9664 267.854 15.3541C267.576 16.8664 267.748 18.3339 268.588 19.6293C270.419 22.1349 274.073 23.0784 276.904 23.8764C282.23 25.3946 288.228 27.136 292.444 30.8889C292.541 30.9735 292.638 31.0582 292.737 31.1454C293.013 31.3899 293.285 31.6384 293.556 31.8889C293.621 31.9473 293.687 32.0057 293.755 32.0659C295.198 33.4101 296.253 35.2683 296.889 37.1111C296.929 37.2188 296.969 37.3265 297.01 37.4375C298.418 41.5196 297.733 46.3047 295.904 50.134C293.698 54.6102 289.691 57.4946 285.059 59.0946C282.15 60.0382 279.093 60.269 276.056 60.2639C275.928 60.2638 275.8 60.2638 275.668 60.2638C273.811 60.2604 272.04 60.1872 270.222 59.7778C270.008 59.7342 269.793 59.691 269.579 59.648C263.745 58.4405 258.391 55.1415 255.087 50.1284C253.222 47.2179 253.222 47.2179 253.222 46.4444C253.278 46.4161 253.333 46.3878 253.39 46.3586C256.705 44.6679 256.705 44.6679 260.014 42.9653C260.204 42.8671 260.204 42.8671 260.397 42.7671C260.966 42.472 261.535 42.175 262.101 41.8741C262.251 41.7945 262.251 41.7945 262.404 41.7132C262.586 41.6163 262.768 41.5189 262.95 41.4211C263.531 41.1111 263.531 41.1111 263.778 41.1111C263.806 41.1675 263.833 41.2239 263.862 41.282C265.579 44.7295 268.09 47.2203 271.771 48.4791C275.17 49.5663 279.105 49.4914 282.319 47.8541C283.738 47.0477 284.732 45.9012 285.222 44.3333C285.53 43.0725 285.39 41.7744 284.75 40.6436C284.588 40.411 284.415 40.2075 284.222 40C284.154 39.9229 284.085 39.8459 284.014 39.7665C282.463 38.2011 280.14 37.4908 278.111 36.7778C277.912 36.7061 277.713 36.6344 277.515 36.5625C277.327 36.4952 277.139 36.4281 276.951 36.3611C276.871 36.3325 276.792 36.3039 276.709 36.2744C276.065 36.0491 275.411 35.8577 274.756 35.6667C269.518 34.1364 263.729 32.3076 259.889 28.2222C259.797 28.1328 259.706 28.0434 259.611 27.9514C257.718 26.0106 256.582 23.7182 255.889 21.1111C255.869 21.0374 255.849 20.9637 255.828 20.8877C255.544 19.7777 255.525 18.6687 255.521 17.5278C255.52 17.3883 255.52 17.2488 255.519 17.1051C255.552 12.8465 257.306 9.04615 260.222 5.99998C260.303 5.91175 260.385 5.82352 260.468 5.73262C264.29 1.71381 270.313 -0.201112 275.75 -0.159745Z" fill="black"/>
<path d="M0 0.777832C15.5833 0.777832 31.1667 0.777832 47.2222 0.777832C47.2222 4.62783 47.2222 8.47783 47.2222 12.4445C41.3922 12.4445 35.5622 12.4445 29.5556 12.4445C29.5556 27.9545 29.5556 43.4645 29.5556 59.4445C25.5956 59.4445 21.6356 59.4445 17.5556 59.4445C17.5556 43.9345 17.5556 28.4245 17.5556 12.4445C11.7622 12.4445 5.96889 12.4445 0 12.4445C0 8.5945 0 4.7445 0 0.777832Z" fill="black"/>
<path d="M136.028 11.6362C136.113 11.6348 136.198 11.6334 136.286 11.6319C138.256 11.6059 140.094 11.6646 142 12.2221C142.148 12.2632 142.148 12.2632 142.299 12.3051C145.156 13.1091 147.547 14.6202 149.667 16.6666C149.768 16.7609 149.87 16.8553 149.974 16.9526C153.519 20.3402 155.141 25.1328 155.259 29.9404C155.287 32.1163 155.003 34.2934 154.222 36.3332C154.191 36.4147 154.16 36.4962 154.129 36.5802C153.14 39.1423 151.779 41.239 149.889 43.2221C149.801 43.3169 149.714 43.4118 149.623 43.5094C148.075 45.1345 146.062 46.3649 144 47.2221C143.921 47.2552 143.841 47.2883 143.759 47.3224C139.569 49.0245 134.768 49.0503 130.578 47.3267C128.755 46.5465 127.044 45.5367 125.556 44.2221C125.447 44.1286 125.339 44.0351 125.227 43.9387C122.823 41.8285 121.208 39.0916 120.111 36.111C120.07 36.0016 120.029 35.8922 119.987 35.7794C119.322 33.8294 119.179 31.8281 119.174 29.7846C119.173 29.6936 119.172 29.6026 119.172 29.5089C119.164 27.8497 119.36 26.2637 119.854 24.6735C119.882 24.5815 119.911 24.4895 119.94 24.3947C121.436 19.6889 124.693 15.8192 129.049 13.5138C131.194 12.4088 133.602 11.6728 136.028 11.6362Z" fill="white"/>
<path d="M232.778 0.777832C236.774 0.777832 240.771 0.777832 244.889 0.777832C244.889 20.1378 244.889 39.4978 244.889 59.4445C240.892 59.4445 236.896 59.4445 232.778 59.4445C232.778 40.0845 232.778 20.7245 232.778 0.777832Z" fill="black"/>
<path d="M143.81 21.079C144.144 21.3753 144.461 21.6866 144.778 22C144.885 22.0952 144.885 22.0952 144.994 22.1923C146.522 23.5777 147.634 25.9526 147.778 28C147.796 28.4909 147.798 28.9811 147.799 29.4722C147.8 29.6001 147.801 29.7281 147.803 29.8598C147.805 31.1307 147.64 32.268 147.153 33.4445C147.114 33.5403 147.074 33.6361 147.034 33.7348C146.7 34.526 146.304 35.2068 145.778 35.8889C145.7 35.9935 145.623 36.098 145.543 36.2058C143.958 38.2531 141.516 39.5863 138.985 40.066C136.019 40.3776 133.117 39.8845 130.729 37.9861C130.559 37.8437 130.39 37.7001 130.222 37.5556C130.114 37.4701 130.006 37.3846 129.895 37.2965C129.53 36.9919 129.241 36.6465 128.951 36.2709C128.899 36.2024 128.846 36.1339 128.791 36.0633C127.886 34.871 127.32 33.6465 126.889 32.2222C126.851 32.0966 126.813 31.971 126.773 31.8416C126.111 29.2569 126.635 26.493 127.931 24.1945C128.284 23.6124 128.679 23.0806 129.111 22.5556C129.194 22.4456 129.276 22.3356 129.361 22.2222C130.832 20.4931 133.38 19.1592 135.635 18.9088C138.499 18.6846 141.551 19.1566 143.81 21.079Z" fill="black"/>
<path d="M67.6665 12.2222C69.4586 12.2176 71.2507 12.2131 73.0971 12.2083C73.6589 12.2063 74.2208 12.2043 74.7997 12.2022C75.496 12.2012 75.496 12.2012 75.8239 12.201C76.0486 12.2007 76.2733 12.1999 76.4981 12.1988C79.5938 12.1838 82.9697 12.3657 85.3377 14.6367C86.5572 15.8782 87.1792 17.4927 87.2221 19.2222C87.2289 19.3066 87.2358 19.3909 87.2429 19.4779C87.3319 21.132 86.6802 22.9752 85.6457 24.2569C84.7312 25.2081 83.6576 25.8407 82.4443 26.3333C82.3465 26.3754 82.2486 26.4176 82.1478 26.4609C80.3594 27.1806 78.4903 27.1574 76.5966 27.1437C76.3669 27.1432 76.1371 27.1428 75.9074 27.1426C75.0655 27.1409 74.2237 27.1363 73.3818 27.1319C71.4957 27.1251 69.6097 27.1182 67.6665 27.1111C67.6665 22.1978 67.6665 17.2844 67.6665 12.2222Z" fill="white"/>
</g>
<path d="M6.51883 90V80.2H7.66683L12.0628 87.606H11.4468L15.7868 80.2H16.9348L16.9488 90H15.6048L15.5908 82.314H15.9128L12.0488 88.81H11.4048L7.51283 82.314H7.86283V90H6.51883ZM22.8719 90.084C22.1253 90.084 21.4626 89.9207 20.8839 89.594C20.3053 89.2673 19.8479 88.8193 19.5119 88.25C19.1759 87.6713 19.0079 87.018 19.0079 86.29C19.0079 85.5527 19.1759 84.8993 19.5119 84.33C19.8479 83.7607 20.3053 83.3173 20.8839 83C21.4626 82.6733 22.1253 82.51 22.8719 82.51C23.6093 82.51 24.2673 82.6733 24.8459 83C25.4339 83.3173 25.8913 83.7607 26.2179 84.33C26.5539 84.89 26.7219 85.5433 26.7219 86.29C26.7219 87.0273 26.5539 87.6807 26.2179 88.25C25.8913 88.8193 25.4339 89.2673 24.8459 89.594C24.2673 89.9207 23.6093 90.084 22.8719 90.084ZM22.8719 88.908C23.3479 88.908 23.7726 88.8007 24.1459 88.586C24.5286 88.3713 24.8273 88.068 25.0419 87.676C25.2566 87.2747 25.3639 86.8127 25.3639 86.29C25.3639 85.758 25.2566 85.3007 25.0419 84.918C24.8273 84.526 24.5286 84.2227 24.1459 84.008C23.7726 83.7933 23.3479 83.686 22.8719 83.686C22.3959 83.686 21.9713 83.7933 21.5979 84.008C21.2246 84.2227 20.9259 84.526 20.7019 84.918C20.4779 85.3007 20.3659 85.758 20.3659 86.29C20.3659 86.8127 20.4779 87.2747 20.7019 87.676C20.9259 88.068 21.2246 88.3713 21.5979 88.586C21.9713 88.8007 22.3959 88.908 22.8719 88.908ZM30.3216 90L27.0736 82.58H28.4736L31.3576 89.3H30.6856L33.6256 82.58H34.9416L31.6936 90H30.3216ZM36.1959 90V82.58H37.5399V90H36.1959ZM36.8679 81.152C36.6065 81.152 36.3872 81.068 36.2099 80.9C36.0419 80.732 35.9579 80.5267 35.9579 80.284C35.9579 80.032 36.0419 79.822 36.2099 79.654C36.3872 79.486 36.6065 79.402 36.8679 79.402C37.1292 79.402 37.3439 79.486 37.5119 79.654C37.6892 79.8127 37.7779 80.0133 37.7779 80.256C37.7779 80.508 37.6939 80.7227 37.5259 80.9C37.3579 81.068 37.1385 81.152 36.8679 81.152ZM44.068 82.51C44.6747 82.51 45.2067 82.6267 45.664 82.86C46.1307 83.0933 46.4947 83.448 46.756 83.924C47.0174 84.4 47.148 85.002 47.148 85.73V90H45.804V85.884C45.804 85.1653 45.6267 84.624 45.272 84.26C44.9267 83.896 44.4367 83.714 43.802 83.714C43.326 83.714 42.9107 83.8073 42.556 83.994C42.2014 84.1807 41.926 84.456 41.73 84.82C41.5434 85.184 41.45 85.6367 41.45 86.178V90H40.106V82.58H41.394V84.582L41.184 84.05C41.4267 83.5647 41.8 83.1867 42.304 82.916C42.808 82.6453 43.396 82.51 44.068 82.51ZM52.8833 92.8C52.202 92.8 51.5393 92.702 50.8953 92.506C50.2607 92.3193 49.7427 92.0487 49.3413 91.694L49.9853 90.658C50.3307 90.9567 50.7553 91.19 51.2593 91.358C51.7633 91.5353 52.2907 91.624 52.8413 91.624C53.7187 91.624 54.3627 91.4187 54.7733 91.008C55.184 90.5973 55.3893 89.972 55.3893 89.132V87.564L55.5293 86.094L55.4593 84.61V82.58H56.7333V88.992C56.7333 90.2987 56.4067 91.26 55.7533 91.876C55.1 92.492 54.1433 92.8 52.8833 92.8ZM52.7153 89.692C51.9967 89.692 51.3527 89.5427 50.7833 89.244C50.2233 88.936 49.7753 88.5113 49.4393 87.97C49.1127 87.4287 48.9493 86.8033 48.9493 86.094C48.9493 85.3753 49.1127 84.75 49.4393 84.218C49.7753 83.6767 50.2233 83.2567 50.7833 82.958C51.3527 82.6593 51.9967 82.51 52.7153 82.51C53.35 82.51 53.9287 82.6407 54.4513 82.902C54.974 83.154 55.3893 83.546 55.6973 84.078C56.0147 84.61 56.1733 85.282 56.1733 86.094C56.1733 86.8967 56.0147 87.564 55.6973 88.096C55.3893 88.628 54.974 89.0293 54.4513 89.3C53.9287 89.5613 53.35 89.692 52.7153 89.692ZM52.8693 88.516C53.364 88.516 53.8027 88.4133 54.1853 88.208C54.568 88.0027 54.8667 87.718 55.0813 87.354C55.3053 86.99 55.4173 86.57 55.4173 86.094C55.4173 85.618 55.3053 85.198 55.0813 84.834C54.8667 84.47 54.568 84.19 54.1853 83.994C53.8027 83.7887 53.364 83.686 52.8693 83.686C52.3747 83.686 51.9313 83.7887 51.5393 83.994C51.1567 84.19 50.8533 84.47 50.6293 84.834C50.4147 85.198 50.3073 85.618 50.3073 86.094C50.3073 86.57 50.4147 86.99 50.6293 87.354C50.8533 87.718 51.1567 88.0027 51.5393 88.208C51.9313 88.4133 52.3747 88.516 52.8693 88.516ZM58.7693 92.072L59.4693 89.244L59.6513 90.056C59.3807 90.056 59.152 89.972 58.9653 89.804C58.788 89.636 58.6993 89.4073 58.6993 89.118C58.6993 88.838 58.788 88.6093 58.9653 88.432C59.152 88.2547 59.376 88.166 59.6373 88.166C59.908 88.166 60.1273 88.2593 60.2953 88.446C60.4633 88.6233 60.5473 88.8473 60.5473 89.118C60.5473 89.2113 60.538 89.3047 60.5193 89.398C60.51 89.482 60.4867 89.5847 60.4493 89.706C60.4213 89.818 60.3747 89.958 60.3093 90.126L59.6513 92.072H58.7693ZM67.703 84.428H72.743V85.618H67.703V84.428ZM67.829 88.782H73.541V90H66.429V80.2H73.345V81.418H67.829V88.782ZM75.6119 90V82.58H76.8999V84.596L76.7739 84.092C76.9792 83.5787 77.3246 83.1867 77.8099 82.916C78.2952 82.6453 78.8926 82.51 79.6019 82.51V83.812C79.5459 83.8027 79.4899 83.798 79.4339 83.798C79.3872 83.798 79.3406 83.798 79.2939 83.798C78.5752 83.798 78.0059 84.0127 77.5859 84.442C77.1659 84.8713 76.9559 85.492 76.9559 86.304V90H75.6119ZM81.2584 90V82.58H82.5464V84.596L82.4204 84.092C82.6257 83.5787 82.971 83.1867 83.4564 82.916C83.9417 82.6453 84.539 82.51 85.2484 82.51V83.812C85.1924 83.8027 85.1364 83.798 85.0804 83.798C85.0337 83.798 84.987 83.798 84.9404 83.798C84.2217 83.798 83.6524 84.0127 83.2324 84.442C82.8124 84.8713 82.6024 85.492 82.6024 86.304V90H81.2584ZM90.964 90V88.432L90.894 88.138V85.464C90.894 84.8947 90.726 84.456 90.39 84.148C90.0633 83.8307 89.5687 83.672 88.906 83.672C88.4673 83.672 88.038 83.7467 87.618 83.896C87.198 84.036 86.8433 84.2273 86.554 84.47L85.994 83.462C86.3767 83.154 86.834 82.9207 87.366 82.762C87.9073 82.594 88.472 82.51 89.06 82.51C90.0773 82.51 90.8613 82.7573 91.412 83.252C91.9627 83.7467 92.238 84.5027 92.238 85.52V90H90.964ZM88.528 90.084C87.9773 90.084 87.492 89.9907 87.072 89.804C86.6613 89.6173 86.344 89.3607 86.12 89.034C85.896 88.698 85.784 88.32 85.784 87.9C85.784 87.4987 85.8773 87.1347 86.064 86.808C86.26 86.4813 86.5727 86.22 87.002 86.024C87.4407 85.828 88.0287 85.73 88.766 85.73H91.118V86.696H88.822C88.15 86.696 87.6973 86.808 87.464 87.032C87.2307 87.256 87.114 87.5267 87.114 87.844C87.114 88.208 87.2587 88.502 87.548 88.726C87.8373 88.9407 88.2387 89.048 88.752 89.048C89.256 89.048 89.6947 88.936 90.068 88.712C90.4507 88.488 90.726 88.1613 90.894 87.732L91.16 88.656C90.9827 89.0947 90.67 89.4447 90.222 89.706C89.774 89.958 89.2093 90.084 88.528 90.084ZM98.6872 82.51C99.2938 82.51 99.8258 82.6267 100.283 82.86C100.75 83.0933 101.114 83.448 101.375 83.924C101.637 84.4 101.767 85.002 101.767 85.73V90H100.423V85.884C100.423 85.1653 100.246 84.624 99.8912 84.26C99.5458 83.896 99.0558 83.714 98.4212 83.714C97.9452 83.714 97.5298 83.8073 97.1752 83.994C96.8205 84.1807 96.5452 84.456 96.3492 84.82C96.1625 85.184 96.0692 85.6367 96.0692 86.178V90H94.7252V82.58H96.0132V84.582L95.8032 84.05C96.0458 83.5647 96.4192 83.1867 96.9232 82.916C97.4272 82.6453 98.0152 82.51 98.6872 82.51ZM107.32 90.084C106.602 90.084 105.958 89.9253 105.388 89.608C104.828 89.2907 104.385 88.8473 104.058 88.278C103.732 87.7087 103.568 87.046 103.568 86.29C103.568 85.534 103.732 84.876 104.058 84.316C104.385 83.7467 104.828 83.3033 105.388 82.986C105.958 82.6687 106.602 82.51 107.32 82.51C107.946 82.51 108.51 82.65 109.014 82.93C109.518 83.21 109.92 83.63 110.218 84.19C110.526 84.75 110.68 85.45 110.68 86.29C110.68 87.13 110.531 87.83 110.232 88.39C109.943 88.95 109.546 89.3747 109.042 89.664C108.538 89.944 107.964 90.084 107.32 90.084ZM107.432 88.908C107.899 88.908 108.319 88.8007 108.692 88.586C109.075 88.3713 109.374 88.068 109.588 87.676C109.812 87.2747 109.924 86.8127 109.924 86.29C109.924 85.758 109.812 85.3007 109.588 84.918C109.374 84.526 109.075 84.2227 108.692 84.008C108.319 83.7933 107.899 83.686 107.432 83.686C106.956 83.686 106.532 83.7933 106.158 84.008C105.785 84.2227 105.486 84.526 105.262 84.918C105.038 85.3007 104.926 85.758 104.926 86.29C104.926 86.8127 105.038 87.2747 105.262 87.676C105.486 88.068 105.785 88.3713 106.158 88.586C106.532 88.8007 106.956 88.908 107.432 88.908ZM109.966 90V87.998L110.05 86.276L109.91 84.554V79.612H111.254V90H109.966ZM115.925 90.084C115.309 90.084 114.721 90 114.161 89.832C113.611 89.664 113.177 89.4587 112.859 89.216L113.419 88.152C113.737 88.3667 114.129 88.5487 114.595 88.698C115.062 88.8473 115.538 88.922 116.023 88.922C116.649 88.922 117.097 88.8333 117.367 88.656C117.647 88.4787 117.787 88.2313 117.787 87.914C117.787 87.6807 117.703 87.4987 117.535 87.368C117.367 87.2373 117.143 87.1393 116.863 87.074C116.593 87.0087 116.289 86.9527 115.953 86.906C115.617 86.85 115.281 86.7847 114.945 86.71C114.609 86.626 114.301 86.514 114.021 86.374C113.741 86.2247 113.517 86.024 113.349 85.772C113.181 85.5107 113.097 85.1653 113.097 84.736C113.097 84.288 113.223 83.896 113.475 83.56C113.727 83.224 114.082 82.9673 114.539 82.79C115.006 82.6033 115.557 82.51 116.191 82.51C116.677 82.51 117.167 82.5707 117.661 82.692C118.165 82.804 118.576 82.9673 118.893 83.182L118.319 84.246C117.983 84.022 117.633 83.868 117.269 83.784C116.905 83.7 116.541 83.658 116.177 83.658C115.589 83.658 115.151 83.756 114.861 83.952C114.572 84.1387 114.427 84.3813 114.427 84.68C114.427 84.932 114.511 85.128 114.679 85.268C114.857 85.3987 115.081 85.5013 115.351 85.576C115.631 85.6507 115.939 85.716 116.275 85.772C116.611 85.8187 116.947 85.884 117.283 85.968C117.619 86.0427 117.923 86.15 118.193 86.29C118.473 86.43 118.697 86.626 118.865 86.878C119.043 87.13 119.131 87.466 119.131 87.886C119.131 88.334 119.001 88.7213 118.739 89.048C118.478 89.3747 118.109 89.6313 117.633 89.818C117.157 89.9953 116.588 90.084 115.925 90.084ZM127.357 90.112C126.694 90.112 126.106 90.0047 125.593 89.79C125.08 89.5753 124.674 89.2767 124.375 88.894C124.076 88.5113 123.927 88.068 123.927 87.564C123.927 87.1253 124.025 86.724 124.221 86.36C124.417 85.996 124.73 85.646 125.159 85.31C125.588 84.9647 126.153 84.61 126.853 84.246C127.422 83.9473 127.866 83.686 128.183 83.462C128.51 83.238 128.738 83.028 128.869 82.832C129.009 82.6267 129.079 82.4073 129.079 82.174C129.079 81.8567 128.967 81.6 128.743 81.404C128.519 81.1987 128.197 81.096 127.777 81.096C127.338 81.096 126.993 81.208 126.741 81.432C126.498 81.6467 126.377 81.9313 126.377 82.286C126.377 82.4633 126.405 82.636 126.461 82.804C126.526 82.9627 126.638 83.1447 126.797 83.35C126.965 83.546 127.203 83.798 127.511 84.106L132.691 89.258L131.935 90.154L126.433 84.68C126.106 84.3533 125.85 84.064 125.663 83.812C125.476 83.5507 125.341 83.2987 125.257 83.056C125.173 82.8133 125.131 82.566 125.131 82.314C125.131 81.8753 125.238 81.4927 125.453 81.166C125.677 80.83 125.985 80.5733 126.377 80.396C126.778 80.2093 127.245 80.116 127.777 80.116C128.272 80.116 128.701 80.2 129.065 80.368C129.429 80.5267 129.709 80.76 129.905 81.068C130.11 81.3667 130.213 81.7307 130.213 82.16C130.213 82.5333 130.12 82.8787 129.933 83.196C129.756 83.5133 129.466 83.8213 129.065 84.12C128.664 84.4187 128.122 84.7407 127.441 85.086C126.881 85.3753 126.442 85.646 126.125 85.898C125.808 86.1407 125.579 86.3833 125.439 86.626C125.308 86.8687 125.243 87.1347 125.243 87.424C125.243 87.732 125.332 88.0073 125.509 88.25C125.696 88.4833 125.952 88.6653 126.279 88.796C126.615 88.9267 127.002 88.992 127.441 88.992C128.066 88.992 128.631 88.8567 129.135 88.586C129.639 88.3153 130.059 87.9093 130.395 87.368C130.74 86.8267 130.992 86.1547 131.151 85.352L132.229 85.702C132.042 86.6447 131.72 87.4427 131.263 88.096C130.815 88.7493 130.26 89.2487 129.597 89.594C128.934 89.9393 128.188 90.112 127.357 90.112ZM138.124 90V80.2H142.254C143.3 80.2 144.219 80.4053 145.012 80.816C145.815 81.2267 146.436 81.8007 146.874 82.538C147.322 83.2753 147.546 84.1293 147.546 85.1C147.546 86.0707 147.322 86.9247 146.874 87.662C146.436 88.3993 145.815 88.9733 145.012 89.384C144.219 89.7947 143.3 90 142.254 90H138.124ZM139.524 88.782H142.17C142.982 88.782 143.682 88.628 144.27 88.32C144.868 88.012 145.33 87.5827 145.656 87.032C145.983 86.472 146.146 85.828 146.146 85.1C146.146 84.3627 145.983 83.7187 145.656 83.168C145.33 82.6173 144.868 82.188 144.27 81.88C143.682 81.572 142.982 81.418 142.17 81.418H139.524V88.782ZM152.799 90.084C152.005 90.084 151.305 89.9207 150.699 89.594C150.101 89.2673 149.635 88.8193 149.299 88.25C148.972 87.6807 148.809 87.0273 148.809 86.29C148.809 85.5527 148.967 84.8993 149.285 84.33C149.611 83.7607 150.055 83.3173 150.615 83C151.184 82.6733 151.823 82.51 152.533 82.51C153.251 82.51 153.886 82.6687 154.437 82.986C154.987 83.3033 155.417 83.7513 155.725 84.33C156.042 84.8993 156.201 85.5667 156.201 86.332C156.201 86.388 156.196 86.4533 156.187 86.528C156.187 86.6027 156.182 86.6727 156.173 86.738H149.859V85.772H155.473L154.927 86.108C154.936 85.632 154.838 85.2073 154.633 84.834C154.427 84.4607 154.143 84.1713 153.779 83.966C153.424 83.7513 153.009 83.644 152.533 83.644C152.066 83.644 151.651 83.7513 151.287 83.966C150.923 84.1713 150.638 84.4653 150.433 84.848C150.227 85.2213 150.125 85.6507 150.125 86.136V86.36C150.125 86.8547 150.237 87.298 150.461 87.69C150.694 88.0727 151.016 88.3713 151.427 88.586C151.837 88.8007 152.309 88.908 152.841 88.908C153.279 88.908 153.676 88.8333 154.031 88.684C154.395 88.5347 154.712 88.3107 154.983 88.012L155.725 88.88C155.389 89.272 154.969 89.5707 154.465 89.776C153.97 89.9813 153.415 90.084 152.799 90.084ZM158.067 90V79.612H159.411V90H158.067ZM161.977 90V82.58H163.321V90H161.977ZM162.649 81.152C162.388 81.152 162.168 81.068 161.991 80.9C161.823 80.732 161.739 80.5267 161.739 80.284C161.739 80.032 161.823 79.822 161.991 79.654C162.168 79.486 162.388 79.402 162.649 79.402C162.91 79.402 163.125 79.486 163.293 79.654C163.47 79.8127 163.559 80.0133 163.559 80.256C163.559 80.508 163.475 80.7227 163.307 80.9C163.139 81.068 162.92 81.152 162.649 81.152ZM167.833 90L164.585 82.58H165.985L168.869 89.3H168.197L171.137 82.58H172.453L169.205 90H167.833ZM176.807 90.084C176.013 90.084 175.313 89.9207 174.707 89.594C174.109 89.2673 173.643 88.8193 173.307 88.25C172.98 87.6807 172.817 87.0273 172.817 86.29C172.817 85.5527 172.975 84.8993 173.293 84.33C173.619 83.7607 174.063 83.3173 174.623 83C175.192 82.6733 175.831 82.51 176.541 82.51C177.259 82.51 177.894 82.6687 178.445 82.986C178.995 83.3033 179.425 83.7513 179.733 84.33C180.05 84.8993 180.209 85.5667 180.209 86.332C180.209 86.388 180.204 86.4533 180.195 86.528C180.195 86.6027 180.19 86.6727 180.181 86.738H173.867V85.772H179.481L178.935 86.108C178.944 85.632 178.846 85.2073 178.641 84.834C178.435 84.4607 178.151 84.1713 177.787 83.966C177.432 83.7513 177.017 83.644 176.541 83.644C176.074 83.644 175.659 83.7513 175.295 83.966C174.931 84.1713 174.646 84.4653 174.441 84.848C174.235 85.2213 174.133 85.6507 174.133 86.136V86.36C174.133 86.8547 174.245 87.298 174.469 87.69C174.702 88.0727 175.024 88.3713 175.435 88.586C175.845 88.8007 176.317 88.908 176.849 88.908C177.287 88.908 177.684 88.8333 178.039 88.684C178.403 88.5347 178.72 88.3107 178.991 88.012L179.733 88.88C179.397 89.272 178.977 89.5707 178.473 89.776C177.978 89.9813 177.423 90.084 176.807 90.084ZM182.075 90V82.58H183.363V84.596L183.237 84.092C183.442 83.5787 183.787 83.1867 184.273 82.916C184.758 82.6453 185.355 82.51 186.065 82.51V83.812C186.009 83.8027 185.953 83.798 185.897 83.798C185.85 83.798 185.803 83.798 185.757 83.798C185.038 83.798 184.469 84.0127 184.049 84.442C183.629 84.8713 183.419 85.492 183.419 86.304V90H182.075ZM187.721 90V82.58H189.065V90H187.721ZM188.393 81.152C188.132 81.152 187.913 81.068 187.735 80.9C187.567 80.732 187.483 80.5267 187.483 80.284C187.483 80.032 187.567 79.822 187.735 79.654C187.913 79.486 188.132 79.402 188.393 79.402C188.655 79.402 188.869 79.486 189.037 79.654C189.215 79.8127 189.303 80.0133 189.303 80.256C189.303 80.508 189.219 80.7227 189.051 80.9C188.883 81.068 188.664 81.152 188.393 81.152ZM194.935 90.084C194.142 90.084 193.442 89.9207 192.835 89.594C192.238 89.2673 191.771 88.8193 191.435 88.25C191.109 87.6807 190.945 87.0273 190.945 86.29C190.945 85.5527 191.104 84.8993 191.421 84.33C191.748 83.7607 192.191 83.3173 192.751 83C193.321 82.6733 193.96 82.51 194.669 82.51C195.388 82.51 196.023 82.6687 196.573 82.986C197.124 83.3033 197.553 83.7513 197.861 84.33C198.179 84.8993 198.337 85.5667 198.337 86.332C198.337 86.388 198.333 86.4533 198.323 86.528C198.323 86.6027 198.319 86.6727 198.309 86.738H191.995V85.772H197.609L197.063 86.108C197.073 85.632 196.975 85.2073 196.769 84.834C196.564 84.4607 196.279 84.1713 195.915 83.966C195.561 83.7513 195.145 83.644 194.669 83.644C194.203 83.644 193.787 83.7513 193.423 83.966C193.059 84.1713 192.775 84.4653 192.569 84.848C192.364 85.2213 192.261 85.6507 192.261 86.136V86.36C192.261 86.8547 192.373 87.298 192.597 87.69C192.831 88.0727 193.153 88.3713 193.563 88.586C193.974 88.8007 194.445 88.908 194.977 88.908C195.416 88.908 195.813 88.8333 196.167 88.684C196.531 88.5347 196.849 88.3107 197.119 88.012L197.861 88.88C197.525 89.272 197.105 89.5707 196.601 89.776C196.107 89.9813 195.551 90.084 194.935 90.084ZM202.332 90.084C201.716 90.084 201.128 90 200.568 89.832C200.017 89.664 199.583 89.4587 199.266 89.216L199.826 88.152C200.143 88.3667 200.535 88.5487 201.002 88.698C201.468 88.8473 201.944 88.922 202.43 88.922C203.055 88.922 203.503 88.8333 203.774 88.656C204.054 88.4787 204.194 88.2313 204.194 87.914C204.194 87.6807 204.11 87.4987 203.942 87.368C203.774 87.2373 203.55 87.1393 203.27 87.074C202.999 87.0087 202.696 86.9527 202.36 86.906C202.024 86.85 201.688 86.7847 201.352 86.71C201.016 86.626 200.708 86.514 200.428 86.374C200.148 86.2247 199.924 86.024 199.756 85.772C199.588 85.5107 199.504 85.1653 199.504 84.736C199.504 84.288 199.63 83.896 199.882 83.56C200.134 83.224 200.488 82.9673 200.946 82.79C201.412 82.6033 201.963 82.51 202.598 82.51C203.083 82.51 203.573 82.5707 204.068 82.692C204.572 82.804 204.982 82.9673 205.3 83.182L204.726 84.246C204.39 84.022 204.04 83.868 203.676 83.784C203.312 83.7 202.948 83.658 202.584 83.658C201.996 83.658 201.557 83.756 201.268 83.952C200.978 84.1387 200.834 84.3813 200.834 84.68C200.834 84.932 200.918 85.128 201.086 85.268C201.263 85.3987 201.487 85.5013 201.758 85.576C202.038 85.6507 202.346 85.716 202.682 85.772C203.018 85.8187 203.354 85.884 203.69 85.968C204.026 86.0427 204.329 86.15 204.6 86.29C204.88 86.43 205.104 86.626 205.272 86.878C205.449 87.13 205.538 87.466 205.538 87.886C205.538 88.334 205.407 88.7213 205.146 89.048C204.884 89.3747 204.516 89.6313 204.04 89.818C203.564 89.9953 202.994 90.084 202.332 90.084ZM214.029 90.112C213.282 90.112 212.568 90 211.887 89.776C211.206 89.5427 210.669 89.244 210.277 88.88L210.795 87.788C211.168 88.1147 211.644 88.3853 212.223 88.6C212.802 88.8147 213.404 88.922 214.029 88.922C214.598 88.922 215.06 88.8567 215.415 88.726C215.77 88.5953 216.031 88.418 216.199 88.194C216.367 87.9607 216.451 87.6993 216.451 87.41C216.451 87.074 216.339 86.8033 216.115 86.598C215.9 86.3927 215.616 86.2293 215.261 86.108C214.916 85.9773 214.533 85.8653 214.113 85.772C213.693 85.6787 213.268 85.5713 212.839 85.45C212.419 85.3193 212.032 85.156 211.677 84.96C211.332 84.764 211.052 84.5027 210.837 84.176C210.622 83.84 210.515 83.4107 210.515 82.888C210.515 82.384 210.646 81.922 210.907 81.502C211.178 81.0727 211.588 80.732 212.139 80.48C212.699 80.2187 213.408 80.088 214.267 80.088C214.836 80.088 215.401 80.1627 215.961 80.312C216.521 80.4613 217.006 80.676 217.417 80.956L216.955 82.076C216.535 81.796 216.092 81.5953 215.625 81.474C215.158 81.3433 214.706 81.278 214.267 81.278C213.716 81.278 213.264 81.348 212.909 81.488C212.554 81.628 212.293 81.8147 212.125 82.048C211.966 82.2813 211.887 82.5427 211.887 82.832C211.887 83.1773 211.994 83.4527 212.209 83.658C212.433 83.8633 212.718 84.0267 213.063 84.148C213.418 84.2693 213.805 84.3813 214.225 84.484C214.645 84.5773 215.065 84.6847 215.485 84.806C215.914 84.9273 216.302 85.086 216.647 85.282C217.002 85.478 217.286 85.7393 217.501 86.066C217.716 86.3927 217.823 86.8127 217.823 87.326C217.823 87.8207 217.688 88.2827 217.417 88.712C217.146 89.132 216.726 89.4727 216.157 89.734C215.597 89.986 214.888 90.112 214.029 90.112ZM222.22 90.084C221.474 90.084 220.895 89.8833 220.484 89.482C220.074 89.0807 219.868 88.5067 219.868 87.76V80.956H221.212V87.704C221.212 88.1053 221.31 88.4133 221.506 88.628C221.712 88.8427 222.001 88.95 222.374 88.95C222.794 88.95 223.144 88.8333 223.424 88.6L223.844 89.566C223.639 89.7433 223.392 89.874 223.102 89.958C222.822 90.042 222.528 90.084 222.22 90.084ZM218.608 83.686V82.58H223.34V83.686H218.608ZM225.469 90V82.58H226.757V84.596L226.631 84.092C226.837 83.5787 227.182 83.1867 227.667 82.916C228.153 82.6453 228.75 82.51 229.459 82.51V83.812C229.403 83.8027 229.347 83.798 229.291 83.798C229.245 83.798 229.198 83.798 229.151 83.798C228.433 83.798 227.863 84.0127 227.443 84.442C227.023 84.8713 226.813 85.492 226.813 86.304V90H225.469ZM234.351 90.084C233.558 90.084 232.858 89.9207 232.251 89.594C231.654 89.2673 231.187 88.8193 230.851 88.25C230.525 87.6807 230.361 87.0273 230.361 86.29C230.361 85.5527 230.52 84.8993 230.837 84.33C231.164 83.7607 231.607 83.3173 232.167 83C232.737 82.6733 233.376 82.51 234.085 82.51C234.804 82.51 235.439 82.6687 235.989 82.986C236.54 83.3033 236.969 83.7513 237.277 84.33C237.595 84.8993 237.753 85.5667 237.753 86.332C237.753 86.388 237.749 86.4533 237.739 86.528C237.739 86.6027 237.735 86.6727 237.725 86.738H231.411V85.772H237.025L236.479 86.108C236.489 85.632 236.391 85.2073 236.185 84.834C235.98 84.4607 235.695 84.1713 235.331 83.966C234.977 83.7513 234.561 83.644 234.085 83.644C233.619 83.644 233.203 83.7513 232.839 83.966C232.475 84.1713 232.191 84.4653 231.985 84.848C231.78 85.2213 231.677 85.6507 231.677 86.136V86.36C231.677 86.8547 231.789 87.298 232.013 87.69C232.247 88.0727 232.569 88.3713 232.979 88.586C233.39 88.8007 233.861 88.908 234.393 88.908C234.832 88.908 235.229 88.8333 235.583 88.684C235.947 88.5347 236.265 88.3107 236.535 88.012L237.277 88.88C236.941 89.272 236.521 89.5707 236.017 89.776C235.523 89.9813 234.967 90.084 234.351 90.084ZM241.748 90.084C241.132 90.084 240.544 90 239.984 89.832C239.433 89.664 238.999 89.4587 238.682 89.216L239.242 88.152C239.559 88.3667 239.951 88.5487 240.418 88.698C240.884 88.8473 241.36 88.922 241.846 88.922C242.471 88.922 242.919 88.8333 243.19 88.656C243.47 88.4787 243.61 88.2313 243.61 87.914C243.61 87.6807 243.526 87.4987 243.358 87.368C243.19 87.2373 242.966 87.1393 242.686 87.074C242.415 87.0087 242.112 86.9527 241.776 86.906C241.44 86.85 241.104 86.7847 240.768 86.71C240.432 86.626 240.124 86.514 239.844 86.374C239.564 86.2247 239.34 86.024 239.172 85.772C239.004 85.5107 238.92 85.1653 238.92 84.736C238.92 84.288 239.046 83.896 239.298 83.56C239.55 83.224 239.904 82.9673 240.362 82.79C240.828 82.6033 241.379 82.51 242.014 82.51C242.499 82.51 242.989 82.5707 243.484 82.692C243.988 82.804 244.398 82.9673 244.716 83.182L244.142 84.246C243.806 84.022 243.456 83.868 243.092 83.784C242.728 83.7 242.364 83.658 242 83.658C241.412 83.658 240.973 83.756 240.684 83.952C240.394 84.1387 240.25 84.3813 240.25 84.68C240.25 84.932 240.334 85.128 240.502 85.268C240.679 85.3987 240.903 85.5013 241.174 85.576C241.454 85.6507 241.762 85.716 242.098 85.772C242.434 85.8187 242.77 85.884 243.106 85.968C243.442 86.0427 243.745 86.15 244.016 86.29C244.296 86.43 244.52 86.626 244.688 86.878C244.865 87.13 244.954 87.466 244.954 87.886C244.954 88.334 244.823 88.7213 244.562 89.048C244.3 89.3747 243.932 89.6313 243.456 89.818C242.98 89.9953 242.41 90.084 241.748 90.084ZM248.761 90.084C248.145 90.084 247.557 90 246.997 89.832C246.447 89.664 246.013 89.4587 245.695 89.216L246.255 88.152C246.573 88.3667 246.965 88.5487 247.431 88.698C247.898 88.8473 248.374 88.922 248.859 88.922C249.485 88.922 249.933 88.8333 250.203 88.656C250.483 88.4787 250.623 88.2313 250.623 87.914C250.623 87.6807 250.539 87.4987 250.371 87.368C250.203 87.2373 249.979 87.1393 249.699 87.074C249.429 87.0087 249.125 86.9527 248.789 86.906C248.453 86.85 248.117 86.7847 247.781 86.71C247.445 86.626 247.137 86.514 246.857 86.374C246.577 86.2247 246.353 86.024 246.185 85.772C246.017 85.5107 245.933 85.1653 245.933 84.736C245.933 84.288 246.059 83.896 246.311 83.56C246.563 83.224 246.918 82.9673 247.375 82.79C247.842 82.6033 248.393 82.51 249.027 82.51C249.513 82.51 250.003 82.5707 250.497 82.692C251.001 82.804 251.412 82.9673 251.729 83.182L251.155 84.246C250.819 84.022 250.469 83.868 250.105 83.784C249.741 83.7 249.377 83.658 249.013 83.658C248.425 83.658 247.987 83.756 247.697 83.952C247.408 84.1387 247.263 84.3813 247.263 84.68C247.263 84.932 247.347 85.128 247.515 85.268C247.693 85.3987 247.917 85.5013 248.187 85.576C248.467 85.6507 248.775 85.716 249.111 85.772C249.447 85.8187 249.783 85.884 250.119 85.968C250.455 86.0427 250.759 86.15 251.029 86.29C251.309 86.43 251.533 86.626 251.701 86.878C251.879 87.13 251.967 87.466 251.967 87.886C251.967 88.334 251.837 88.7213 251.575 89.048C251.314 89.3747 250.945 89.6313 250.469 89.818C249.993 89.9953 249.424 90.084 248.761 90.084ZM253.171 86.738V85.576H256.937V86.738H253.171ZM260.462 84.834H265.516V86.038H260.462V84.834ZM260.602 90H259.202V80.2H266.118V81.418H260.602V90ZM267.756 90V82.58H269.044V84.596L268.918 84.092C269.124 83.5787 269.469 83.1867 269.954 82.916C270.44 82.6453 271.037 82.51 271.746 82.51V83.812C271.69 83.8027 271.634 83.798 271.578 83.798C271.532 83.798 271.485 83.798 271.438 83.798C270.72 83.798 270.15 84.0127 269.73 84.442C269.31 84.8713 269.1 85.492 269.1 86.304V90H267.756ZM276.639 90.084C275.845 90.084 275.145 89.9207 274.539 89.594C273.941 89.2673 273.475 88.8193 273.139 88.25C272.812 87.6807 272.649 87.0273 272.649 86.29C272.649 85.5527 272.807 84.8993 273.125 84.33C273.451 83.7607 273.895 83.3173 274.455 83C275.024 82.6733 275.663 82.51 276.373 82.51C277.091 82.51 277.726 82.6687 278.277 82.986C278.827 83.3033 279.257 83.7513 279.565 84.33C279.882 84.8993 280.041 85.5667 280.041 86.332C280.041 86.388 280.036 86.4533 280.027 86.528C280.027 86.6027 280.022 86.6727 280.013 86.738H273.699V85.772H279.313L278.767 86.108C278.776 85.632 278.678 85.2073 278.473 84.834C278.267 84.4607 277.983 84.1713 277.619 83.966C277.264 83.7513 276.849 83.644 276.373 83.644C275.906 83.644 275.491 83.7513 275.127 83.966C274.763 84.1713 274.478 84.4653 274.273 84.848C274.067 85.2213 273.965 85.6507 273.965 86.136V86.36C273.965 86.8547 274.077 87.298 274.301 87.69C274.534 88.0727 274.856 88.3713 275.267 88.586C275.677 88.8007 276.149 88.908 276.681 88.908C277.119 88.908 277.516 88.8333 277.871 88.684C278.235 88.5347 278.552 88.3107 278.823 88.012L279.565 88.88C279.229 89.272 278.809 89.5707 278.305 89.776C277.81 89.9813 277.255 90.084 276.639 90.084ZM285.211 90.084C284.417 90.084 283.717 89.9207 283.111 89.594C282.513 89.2673 282.047 88.8193 281.711 88.25C281.384 87.6807 281.221 87.0273 281.221 86.29C281.221 85.5527 281.379 84.8993 281.697 84.33C282.023 83.7607 282.467 83.3173 283.027 83C283.596 82.6733 284.235 82.51 284.945 82.51C285.663 82.51 286.298 82.6687 286.849 82.986C287.399 83.3033 287.829 83.7513 288.137 84.33C288.454 84.8993 288.613 85.5667 288.613 86.332C288.613 86.388 288.608 86.4533 288.599 86.528C288.599 86.6027 288.594 86.6727 288.585 86.738H282.271V85.772H287.885L287.339 86.108C287.348 85.632 287.25 85.2073 287.045 84.834C286.839 84.4607 286.555 84.1713 286.191 83.966C285.836 83.7513 285.421 83.644 284.945 83.644C284.478 83.644 284.063 83.7513 283.699 83.966C283.335 84.1713 283.05 84.4653 282.845 84.848C282.639 85.2213 282.537 85.6507 282.537 86.136V86.36C282.537 86.8547 282.649 87.298 282.873 87.69C283.106 88.0727 283.428 88.3713 283.839 88.586C284.249 88.8007 284.721 88.908 285.253 88.908C285.691 88.908 286.088 88.8333 286.443 88.684C286.807 88.5347 287.124 88.3107 287.395 88.012L288.137 88.88C287.801 89.272 287.381 89.5707 286.877 89.776C286.382 89.9813 285.827 90.084 285.211 90.084ZM290.549 86.906L290.297 80.2H291.879L291.613 86.906H290.549ZM291.095 90.084C290.834 90.084 290.614 89.9953 290.437 89.818C290.26 89.6407 290.171 89.4307 290.171 89.188C290.171 88.9267 290.26 88.712 290.437 88.544C290.614 88.376 290.834 88.292 291.095 88.292C291.356 88.292 291.571 88.376 291.739 88.544C291.907 88.712 291.991 88.9267 291.991 89.188C291.991 89.4307 291.907 89.6407 291.739 89.818C291.571 89.9953 291.356 90.084 291.095 90.084Z" fill="#333333"/>
<defs>
<clipPath id="clip0_5376_25554">
<rect width="298" height="60" fill="white"/>
</clipPath>
</defs>
</svg>
