<svg width="221" height="200" viewBox="0 0 221 200" fill="none" xmlns="http://www.w3.org/2000/svg">
<g clip-path="url(#clip0_5376_24031)">
<path d="M101.887 82.8143C101.952 82.8133 102.018 82.8124 102.085 82.8113C104.343 82.7839 106.544 82.9364 108.694 83.6072C108.795 83.6374 108.795 83.6374 108.898 83.6682C111.039 84.3111 113.02 85.2305 114.787 86.5057C114.858 86.556 114.928 86.6063 115.001 86.6582C116.042 87.4171 117.006 88.2593 117.834 89.211C117.879 89.2595 117.924 89.308 117.97 89.358C120.181 91.7739 121.563 94.9283 121.944 98.0355C121.95 98.0829 121.957 98.1302 121.964 98.179C122.037 98.7722 122.028 99.369 122.028 99.9651C122.028 100.155 122.029 100.344 122.03 100.534C122.034 101.556 121.983 102.581 121.744 103.583C121.732 103.636 121.72 103.689 121.707 103.743C120.936 107.002 119.252 110 116.7 112.399C116.656 112.441 116.611 112.484 116.565 112.527C115.999 113.056 115.431 113.559 114.787 114.01C114.686 114.084 114.686 114.084 114.582 114.16C113.93 114.633 113.235 115.037 112.52 115.427C112.437 115.472 112.437 115.472 112.352 115.519C111.345 116.063 110.283 116.465 109.19 116.844C109.123 116.867 109.056 116.891 108.987 116.915C108.536 117.069 108.082 117.19 107.613 117.295C107.504 117.319 107.504 117.319 107.392 117.344C106.883 117.456 106.372 117.553 105.855 117.637C105.762 117.652 105.762 117.652 105.667 117.668C104.698 117.817 103.714 117.825 102.733 117.826C102.646 117.826 102.646 117.826 102.557 117.826C101.094 117.826 99.6349 117.732 98.2077 117.424C98.0947 117.402 97.9817 117.38 97.8686 117.358C93.8723 116.568 90.0357 114.359 87.5088 111.433C87.4472 111.364 87.3855 111.296 87.3236 111.227C85.068 108.7 83.7241 105.573 83.3284 102.351C83.3218 102.301 83.3151 102.25 83.3082 102.198C82.8069 97.9567 84.0193 93.6205 86.8003 90.1772C86.8297 90.1406 86.8592 90.1041 86.8896 90.0664C87.8632 88.8686 88.9691 87.7362 90.2721 86.8278C90.3632 86.7625 90.4542 86.6971 90.5453 86.6318C92.2016 85.4504 94.0259 84.5118 96.0112 83.8648C96.0644 83.8473 96.1175 83.8297 96.1723 83.8116C97.9962 83.2151 99.945 82.8431 101.887 82.8143Z" fill="black"/>
<path d="M50.5942 83.3494C67.5102 83.3494 67.5102 83.3494 68.7682 83.5829C68.8251 83.5934 68.8821 83.604 68.9408 83.6149C71.393 84.0955 73.5646 85.003 75.393 86.57C75.4495 86.6165 75.506 86.663 75.5643 86.7109C76.8394 87.8019 77.6808 89.3055 78.1562 90.8212C78.1777 90.8845 78.1992 90.9477 78.2213 91.0129C79.0564 93.6876 78.7337 96.9706 77.2811 99.4167C76.9424 99.9666 76.5637 100.462 76.1015 100.934C76.0506 100.988 75.9997 101.042 75.9473 101.097C75.3037 101.769 74.589 102.323 73.7633 102.802C73.7182 102.828 73.6731 102.854 73.6266 102.881C72.8962 103.301 72.1462 103.625 71.3412 103.91C71.1932 103.965 71.1932 103.965 71 104.09C71.5664 105.017 72.1414 105.939 72.7312 106.854C72.9948 107.262 73.2552 107.673 73.5153 108.084C73.856 108.621 74.1983 109.158 74.5427 109.694C75.0208 110.438 75.4945 111.184 75.9675 111.93C76.1891 112.28 76.411 112.629 76.6329 112.979C76.8996 113.399 77.1662 113.819 77.4325 114.24C77.5217 114.38 77.6109 114.521 77.7001 114.662C77.7435 114.73 77.7868 114.799 77.8315 114.869C78.056 115.223 78.2817 115.576 78.5094 115.929C78.5549 115.999 78.6004 116.07 78.6473 116.142C78.734 116.276 78.8209 116.41 78.908 116.544C78.9468 116.604 78.9856 116.664 79.0256 116.726C79.0767 116.805 79.0767 116.805 79.1288 116.885C79.2206 117.04 79.2904 117.196 79.3607 117.359C78.2528 117.379 77.1448 117.393 76.0367 117.402C75.5221 117.407 75.0076 117.413 74.4931 117.422C74.0445 117.431 73.596 117.436 73.1473 117.438C72.9097 117.439 72.6727 117.442 72.4351 117.448C70.99 117.481 70.99 117.481 70.6552 117.28C70.4227 117.06 70.3272 116.809 70.2206 116.522C70.1349 116.381 70.0466 116.242 69.9547 116.104C69.8646 115.96 69.7746 115.816 69.6848 115.672C69.5853 115.513 69.4856 115.354 69.3859 115.195C69.3609 115.155 69.3359 115.115 69.3101 115.074C69.0588 114.673 68.8052 114.273 68.5512 113.873C68.5076 113.804 68.4641 113.736 68.4193 113.665C68.3315 113.527 68.2437 113.389 68.1559 113.251C67.9347 112.903 67.7138 112.554 67.4928 112.206C67.4042 112.066 67.3157 111.927 67.2271 111.787C67.05 111.508 66.8728 111.229 66.6957 110.95C66.6519 110.881 66.608 110.812 66.5629 110.741C66.4742 110.601 66.3856 110.461 66.297 110.322C66.0766 109.974 65.8561 109.627 65.6354 109.28C65.5474 109.141 65.4595 109.003 65.3716 108.865C65.3283 108.796 65.2849 108.728 65.2403 108.658C65.0056 108.288 64.7718 107.918 64.5394 107.547C64.5147 107.508 64.49 107.468 64.4646 107.428C64.3663 107.271 64.2681 107.114 64.1699 106.957C63.8436 106.436 63.5112 105.92 63.1641 105.41C63.0644 105.25 63.0644 105.25 63.0644 105.121C61.4979 105.121 59.9313 105.121 58.3173 105.121C58.3173 109.159 58.3173 113.198 58.3173 117.359C55.7687 117.359 53.2201 117.359 50.5942 117.359C50.5942 106.136 50.5942 94.9127 50.5942 83.3494Z" fill="black"/>
<path d="M128.462 83.3494C130.988 83.3494 133.513 83.3494 136.115 83.3494C136.138 88.1957 136.161 93.0421 136.185 98.0354C136.888 97.2539 136.888 97.2539 137.567 96.4573C137.907 96.0492 138.256 95.6496 138.613 95.2536C138.959 94.8692 139.297 94.4794 139.633 94.088C139.794 93.9006 139.956 93.7135 140.118 93.5265C140.312 93.3019 140.506 93.0773 140.7 92.8524C141.07 92.4226 141.444 91.9949 141.819 91.5689C142.156 91.1871 142.488 90.8026 142.82 90.4176C143.014 90.1922 143.209 89.9672 143.404 89.7421C143.565 89.5552 143.727 89.3681 143.888 89.1809C144.259 88.7511 144.632 88.3234 145.008 87.8974C145.344 87.5156 145.677 87.1311 146.009 86.7461C146.203 86.5207 146.398 86.2957 146.592 86.0706C146.754 85.8837 146.915 85.6966 147.077 85.5094C147.453 85.0733 147.831 84.6389 148.214 84.2076C148.247 84.1703 148.28 84.133 148.314 84.0946C148.345 84.0599 148.377 84.0252 148.41 83.9894C148.517 83.8675 148.517 83.8675 148.594 83.7315C148.739 83.5064 148.847 83.3716 149.131 83.3027C149.38 83.2858 149.623 83.2857 149.872 83.2909C149.967 83.291 150.062 83.2909 150.157 83.2906C150.414 83.2905 150.671 83.2935 150.928 83.2971C151.197 83.3003 151.466 83.3006 151.735 83.3013C152.244 83.3029 152.753 83.3071 153.261 83.3123C153.841 83.318 154.42 83.3208 155 83.3234C156.192 83.3288 157.383 83.3379 158.575 83.3494C158.449 83.5423 158.325 83.7237 158.168 83.8966C158.131 83.9374 158.094 83.9782 158.056 84.0203C158.017 84.0633 157.978 84.1062 157.937 84.1505C157.854 84.2429 157.771 84.3353 157.688 84.4278C157.646 84.4739 157.604 84.5201 157.562 84.5676C157.388 84.7622 157.217 84.9593 157.047 85.1569C156.744 85.5097 156.437 85.8598 156.129 86.2091C155.893 86.477 155.659 86.7464 155.427 87.0168C155.107 87.3878 154.782 87.7535 154.454 88.1184C154.207 88.3944 153.963 88.6726 153.722 88.9532C153.404 89.323 153.08 89.6873 152.754 90.0508C152.506 90.3268 152.262 90.605 152.021 90.8856C151.704 91.2553 151.379 91.6197 151.053 91.9831C150.806 92.2592 150.562 92.5373 150.321 92.818C150.003 93.1877 149.679 93.5521 149.353 93.9155C149.105 94.1915 148.861 94.4697 148.62 94.7503C148.303 95.1201 147.978 95.4844 147.652 95.8479C147.405 96.1239 147.161 96.4021 146.92 96.6827C146.603 97.052 146.279 97.4159 145.953 97.7788C145.661 98.1041 145.375 98.4326 145.091 98.7638C144.844 99.0514 144.844 99.0514 144.726 99.1683C144.612 99.2788 144.612 99.2788 144.475 99.4524C144.5 99.6458 144.579 99.7712 144.707 99.9244C144.74 99.9648 144.773 100.005 144.808 100.047C144.844 100.09 144.881 100.133 144.918 100.177C144.956 100.222 144.994 100.268 145.033 100.314C145.338 100.677 145.654 101.032 145.973 101.384C146.277 101.722 146.566 102.069 146.852 102.419C147.13 102.759 147.417 103.089 147.709 103.418C147.965 103.707 148.216 103.999 148.464 104.294C148.673 104.543 148.885 104.79 149.098 105.036C149.525 105.528 149.948 106.023 150.37 106.518C150.578 106.761 150.786 107.003 150.994 107.246C151.244 107.539 151.495 107.832 151.745 108.125C152.12 108.563 152.494 109.001 152.871 109.436C153.292 109.922 153.709 110.41 154.126 110.898C154.333 111.141 154.541 111.383 154.749 111.626C154.832 111.723 154.914 111.82 154.997 111.916C155.058 111.988 155.058 111.988 155.121 112.061C155.493 112.496 155.493 112.496 155.617 112.641C155.7 112.737 155.782 112.834 155.865 112.93C156.074 113.175 156.283 113.42 156.492 113.664C156.897 114.138 157.303 114.611 157.711 115.083C158.103 115.535 158.491 115.989 158.879 116.445C158.965 116.545 159.053 116.646 159.14 116.745C159.186 116.797 159.231 116.849 159.278 116.903C159.32 116.95 159.362 116.997 159.405 117.046C159.496 117.166 159.496 117.166 159.496 117.295C158.214 117.311 156.932 117.324 155.649 117.331C155.054 117.335 154.458 117.34 153.863 117.348C153.344 117.355 152.825 117.36 152.305 117.361C152.031 117.362 151.756 117.364 151.481 117.37C151.222 117.374 150.963 117.376 150.704 117.375C150.565 117.375 150.425 117.379 150.286 117.383C149.911 117.378 149.673 117.37 149.383 117.142C149.22 116.963 149.078 116.781 148.939 116.586C148.858 116.487 148.777 116.388 148.695 116.29C148.618 116.194 148.542 116.098 148.465 116.002C148.087 115.53 147.698 115.067 147.302 114.607C147.029 114.29 146.762 113.971 146.497 113.648C146.251 113.348 146 113.051 145.751 112.754C145.405 112.342 145.062 111.93 144.721 111.516C144.476 111.218 144.227 110.923 143.979 110.628C143.683 110.275 143.386 109.921 143.094 109.565C142.805 109.214 142.513 108.866 142.221 108.518C141.884 108.117 141.549 107.715 141.216 107.311C140.892 106.917 140.565 106.526 140.237 106.135C139.856 105.681 139.476 105.224 139.099 104.766C138.762 104.357 138.423 103.95 138.079 103.545C137.822 103.242 137.566 102.937 137.31 102.633C137.264 102.577 137.217 102.522 137.169 102.465C136.834 102.066 136.51 101.662 136.185 101.256C136.162 106.57 136.139 111.884 136.115 117.359C133.589 117.359 131.064 117.359 128.462 117.359C128.462 106.136 128.462 94.9126 128.462 83.3494Z" fill="black"/>
<path d="M191.008 82.806C191.071 82.8063 191.133 82.8065 191.198 82.8068C195.172 82.8282 198.905 83.9515 201.753 86.5289C202.027 86.7846 202.27 87.0572 202.504 87.3431C202.532 87.3766 202.56 87.4101 202.589 87.4446C204.275 89.4703 204.275 89.4703 204.275 90.1772C204.232 90.1982 204.189 90.2192 204.145 90.2408C203.357 90.6258 202.572 91.0137 201.796 91.4172C201.025 91.817 200.242 92.1955 199.457 92.5719C199.411 92.5942 199.364 92.6165 199.316 92.6395C199.226 92.6829 199.135 92.7262 199.045 92.7694C198.747 92.9123 198.453 93.061 198.163 93.2167C198.04 93.269 198.04 93.269 197.828 93.269C197.794 93.2036 197.761 93.1382 197.726 93.0707C197.417 92.481 197.083 91.9704 196.623 91.4655C196.575 91.41 196.526 91.3545 196.476 91.2974C195.474 90.2115 194.058 89.6866 192.585 89.3399C192.511 89.3225 192.438 89.3052 192.362 89.2873C190.806 88.9918 188.884 89.1572 187.527 89.9316C186.771 90.3873 186.215 90.9951 185.973 91.7996C185.796 92.6763 185.906 93.527 186.441 94.278C187.609 95.7304 189.939 96.2774 191.744 96.7401C195.14 97.6202 198.965 98.6296 201.654 100.805C201.716 100.854 201.777 100.903 201.841 100.954C202.017 101.096 202.19 101.24 202.362 101.385C202.404 101.419 202.446 101.453 202.489 101.488C203.41 102.267 204.083 103.344 204.488 104.412C204.513 104.475 204.539 104.537 204.565 104.602C205.463 106.968 205.026 109.742 203.86 111.962C202.453 114.557 199.898 116.229 196.945 117.156C195.089 117.703 193.14 117.837 191.203 117.834C191.121 117.834 191.04 117.834 190.956 117.834C189.771 117.832 188.642 117.79 187.483 117.552C187.346 117.527 187.21 117.502 187.073 117.477C183.353 116.777 179.938 114.865 177.832 111.959C176.643 110.271 176.643 110.271 176.643 109.823C176.678 109.807 176.713 109.79 176.75 109.773C178.864 108.793 178.864 108.793 180.973 107.806C181.094 107.749 181.094 107.749 181.218 107.691C181.581 107.52 181.943 107.348 182.304 107.173C182.4 107.127 182.4 107.127 182.498 107.08C182.614 107.024 182.73 106.968 182.846 106.911C183.216 106.731 183.216 106.731 183.374 106.731C183.391 106.764 183.409 106.797 183.427 106.83C184.523 108.829 186.124 110.273 188.471 111.003C190.638 111.633 193.147 111.589 195.197 110.64C196.102 110.173 196.736 109.508 197.048 108.599C197.245 107.868 197.156 107.116 196.747 106.46C196.644 106.325 196.534 106.207 196.411 106.087C196.367 106.042 196.323 105.998 196.278 105.952C195.289 105.044 193.807 104.632 192.514 104.219C192.387 104.178 192.26 104.136 192.133 104.094C192.014 104.055 191.894 104.016 191.774 103.978C191.723 103.961 191.672 103.944 191.62 103.927C191.209 103.797 190.792 103.686 190.374 103.575C187.034 102.688 183.343 101.628 180.894 99.2593C180.835 99.2075 180.777 99.1557 180.717 99.1023C179.509 97.9773 178.785 96.6483 178.343 95.137C178.33 95.0942 178.318 95.0515 178.305 95.0075C178.123 94.364 178.111 93.7211 178.108 93.0597C178.108 92.9788 178.108 92.898 178.107 92.8146C178.128 90.3459 179.247 88.1428 181.106 86.3769C181.158 86.3258 181.21 86.2746 181.263 86.2219C183.7 83.8922 187.541 82.7821 191.008 82.806Z" fill="black"/>
<path d="M15.1675 83.3494C25.1047 83.3494 35.0419 83.3494 45.2802 83.3494C45.2802 85.5812 45.2802 87.8131 45.2802 90.1127C41.5625 90.1127 37.8448 90.1127 34.0145 90.1127C34.0145 99.104 34.0145 108.095 34.0145 117.359C31.4893 117.359 28.9641 117.359 26.3623 117.359C26.3623 108.368 26.3623 99.3764 26.3623 90.1127C22.668 90.1127 18.9737 90.1127 15.1675 90.1127C15.1675 87.8808 15.1675 85.6489 15.1675 83.3494Z" fill="black"/>
<path d="M101.91 89.6443C101.965 89.6435 102.019 89.6426 102.075 89.6418C103.331 89.6267 104.503 89.6608 105.719 89.9839C105.813 90.0077 105.813 90.0077 105.909 90.032C107.731 90.4981 109.256 91.3741 110.607 92.5604C110.672 92.6151 110.737 92.6699 110.803 92.7262C113.064 94.6901 114.098 97.4684 114.174 100.255C114.191 101.517 114.01 102.779 113.512 103.961C113.493 104.009 113.473 104.056 113.453 104.105C112.822 105.59 111.955 106.805 110.749 107.955C110.693 108.01 110.637 108.065 110.58 108.122C109.593 109.064 108.309 109.777 106.994 110.274C106.943 110.293 106.893 110.312 106.841 110.332C104.169 111.319 101.107 111.334 98.4348 110.334C97.2725 109.882 96.1815 109.297 95.2322 108.535C95.1632 108.48 95.0941 108.426 95.023 108.37C93.4895 107.147 92.4596 105.56 91.7604 103.833C91.7343 103.769 91.7082 103.706 91.6813 103.64C91.2569 102.51 91.1662 101.35 91.1626 100.165C91.1622 100.112 91.1617 100.06 91.1613 100.005C91.1561 99.0434 91.2816 98.124 91.5966 97.2021C91.6146 97.1488 91.6326 97.0955 91.6511 97.0405C92.6053 94.3125 94.6823 92.0692 97.4597 90.7327C98.8279 90.0922 100.363 89.6655 101.91 89.6443Z" fill="white"/>
<path d="M163.605 83.3494C166.154 83.3494 168.703 83.3494 171.328 83.3494C171.328 94.5726 171.328 105.796 171.328 117.359C168.78 117.359 166.231 117.359 163.605 117.359C163.605 106.136 163.605 94.9127 163.605 83.3494Z" fill="black"/>
<path d="M106.873 95.1182C107.085 95.29 107.288 95.4704 107.49 95.6521C107.558 95.7073 107.558 95.7073 107.628 95.7636C108.602 96.5667 109.311 97.9434 109.403 99.1304C109.414 99.4149 109.416 99.6991 109.416 99.9838C109.417 100.058 109.418 100.132 109.419 100.209C109.42 100.945 109.315 101.605 109.004 102.287C108.979 102.342 108.954 102.398 108.929 102.455C108.715 102.914 108.463 103.308 108.128 103.704C108.078 103.764 108.029 103.825 107.978 103.887C106.967 105.074 105.41 105.847 103.796 106.125C101.905 106.306 100.054 106.02 98.5313 104.919C98.423 104.837 98.3152 104.754 98.208 104.67C98.1392 104.62 98.0703 104.571 97.9993 104.52C97.7665 104.343 97.5823 104.143 97.3976 103.925C97.3639 103.885 97.3302 103.846 97.2955 103.805C96.7183 103.114 96.3574 102.404 96.0824 101.578C96.0581 101.505 96.0338 101.432 96.0088 101.357C95.5864 99.859 95.9205 98.2567 96.7467 96.9243C96.9719 96.5869 97.2239 96.2785 97.4995 95.9742C97.5521 95.9104 97.6047 95.8466 97.6589 95.7809C98.5971 94.7785 100.222 94.0053 101.66 93.8601C103.486 93.7301 105.432 94.0038 106.873 95.1182Z" fill="black"/>
<path d="M58.3174 89.984C59.4602 89.9814 60.6029 89.9787 61.7803 89.976C62.1386 89.9748 62.4969 89.9736 62.8661 89.9724C63.3101 89.9718 63.3101 89.9718 63.5192 89.9717C63.6625 89.9715 63.8058 89.9711 63.9491 89.9704C65.9232 89.9618 68.0759 90.0672 69.586 91.3837C70.3636 92.1034 70.7602 93.0393 70.7876 94.042C70.792 94.0909 70.7964 94.1398 70.8009 94.1902C70.8576 95.1491 70.442 96.2176 69.7824 96.9607C69.1992 97.512 68.5146 97.8788 67.7409 98.1644C67.6785 98.1888 67.6161 98.2132 67.5519 98.2383C66.4114 98.6556 65.2195 98.6421 64.012 98.6341C63.8655 98.6338 63.719 98.6336 63.5725 98.6335C63.0356 98.6325 62.4988 98.6298 61.9619 98.6273C60.7592 98.6234 59.5565 98.6194 58.3174 98.6153C58.3174 95.7669 58.3174 92.9186 58.3174 89.984Z" fill="white"/>
</g>
<defs>
<clipPath id="clip0_5376_24031">
<rect width="220" height="200" fill="white" transform="translate(0.500977)"/>
</clipPath>
</defs>
</svg>
