<svg width="25" height="25" viewBox="0 0 25 25" fill="none" xmlns="http://www.w3.org/2000/svg">
<g clip-path="url(#clip0_5399_1609)">
<path d="M17.7085 8.75C18.1228 8.75 18.4583 9.08595 18.4583 9.5V13.25H21.0833C21.4973 13.25 21.8333 13.5857 21.8335 14C21.8335 14.4143 21.4976 14.7502 21.0833 14.75H17.7085C17.2942 14.75 16.9583 14.414 16.9583 13.9998V9.5C16.9583 9.08567 17.2942 8.74977 17.7085 8.75ZM18.8333 6.5C15.5283 6.5 12.8335 9.19531 12.8335 12.5C12.8335 15.8049 15.5283 18.5 18.8333 18.5C22.1379 18.5 24.8333 15.8049 24.8333 12.5C24.8333 9.19531 22.1379 6.5 18.8333 6.5Z" fill="white"/>
<mask id="mask0_5399_1609" style="mask-type:luminance" maskUnits="userSpaceOnUse" x="0" y="0" width="20" height="25">
<path d="M0.833252 0.5H19.5786V24.494H0.833252V0.5Z" fill="white"/>
</mask>
<g mask="url(#mask0_5399_1609)">
<path d="M3.08294 0.499512C1.84937 0.499512 0.833252 1.51588 0.833252 2.7492V23.7439C0.833189 23.8718 0.865819 23.9975 0.928043 24.1092C0.990267 24.2209 1.08002 24.3148 1.18876 24.382C1.2975 24.4492 1.42163 24.4875 1.54934 24.4932C1.67705 24.4989 1.8041 24.4719 1.91842 24.4147L6.06707 22.3405L9.84712 24.4022C9.95722 24.4623 10.0806 24.4937 10.206 24.4937C10.3314 24.4937 10.4548 24.4623 10.5649 24.4022L14.345 22.3405L18.4934 24.4147C18.6077 24.4718 18.7347 24.4988 18.8624 24.4931C18.9901 24.4874 19.1142 24.4491 19.223 24.382C19.3317 24.3147 19.4214 24.2208 19.4837 24.1092C19.5459 23.9975 19.5786 23.8718 19.5786 23.7439V19.9951C19.5786 19.8966 19.5593 19.7991 19.5216 19.7081C19.4839 19.6171 19.4287 19.5344 19.3591 19.4647C19.2894 19.3951 19.2068 19.3398 19.1158 19.3021C19.0248 19.2644 18.9272 19.2451 18.8288 19.2451C18.6299 19.2451 18.439 19.3242 18.2984 19.4648C18.1578 19.6054 18.0789 19.7962 18.0789 19.9951V22.5309L14.6652 20.8241C14.5571 20.7699 14.4374 20.7428 14.3165 20.745C14.1956 20.7471 14.077 20.7785 13.9708 20.8365L10.2062 22.8899L6.44097 20.8365C6.33483 20.7785 6.21623 20.7471 6.09531 20.745C5.97439 20.7428 5.85474 20.7699 5.74659 20.8241L2.33288 22.5309V2.7492C2.33288 2.32618 2.65992 1.99914 3.08294 1.99914H17.3294C17.7523 1.99914 18.0789 2.32618 18.0789 2.7492V4.99864C18.0789 5.1975 18.1579 5.38822 18.2986 5.52883C18.4392 5.66945 18.6299 5.74845 18.8288 5.74845C18.9272 5.74851 19.0248 5.72917 19.1158 5.69151C19.2068 5.65385 19.2895 5.59862 19.3591 5.52898C19.4287 5.45934 19.484 5.37666 19.5216 5.28566C19.5593 5.19465 19.5786 5.09712 19.5786 4.99864V2.7492C19.5786 1.51588 18.5627 0.499512 17.3294 0.499512H3.08294Z" fill="white"/>
</g>
<mask id="mask1_5399_1609" style="mask-type:luminance" maskUnits="userSpaceOnUse" x="0" y="0" width="20" height="25">
<path d="M0.833252 0.5H19.5786V24.494H0.833252V0.5Z" fill="white"/>
</mask>
<g mask="url(#mask1_5399_1609)">
<path d="M5.33208 4.24902C4.91812 4.24927 4.58252 4.58488 4.58252 4.99884C4.58252 5.19766 4.66148 5.38834 4.80205 5.52895C4.94261 5.66956 5.13326 5.74858 5.33208 5.74865H15.0796C15.1781 5.74874 15.2757 5.72941 15.3667 5.69175C15.4577 5.65409 15.5404 5.59886 15.61 5.5292C15.6797 5.45959 15.7349 5.37693 15.7726 5.28595C15.8103 5.19496 15.8298 5.09745 15.8298 4.99896C15.8298 4.90048 15.8103 4.80296 15.7726 4.71198C15.7349 4.62099 15.6797 4.53833 15.61 4.46872C15.4693 4.32812 15.2786 4.2491 15.0796 4.24902H5.33208ZM5.33208 8.74815C4.91812 8.74815 4.58252 9.08375 4.58252 9.49771C4.58252 9.69666 4.66137 9.88724 4.80196 10.0278C4.94255 10.1687 5.13313 10.2478 5.33208 10.2478H10.5808C10.7797 10.2477 10.9705 10.1687 11.1111 10.028C11.2518 9.88739 11.3308 9.69663 11.3308 9.49771C11.3308 9.39923 11.3113 9.30173 11.2736 9.21078C11.2359 9.11982 11.1806 9.03718 11.1109 8.96759C11.0413 8.89794 10.9587 8.8427 10.8677 8.80505C10.7767 8.76739 10.6792 8.74805 10.5808 8.74815H5.33208ZM5.33208 13.2465C5.23362 13.2466 5.13612 13.266 5.04516 13.3037C4.9542 13.3414 4.87156 13.3967 4.80196 13.4663C4.73235 13.536 4.67715 13.6186 4.6395 13.7096C4.60185 13.8006 4.58249 13.8981 4.58252 13.9966C4.58252 14.4105 4.91812 14.7461 5.33208 14.7464H10.5808C10.7797 14.7464 10.9703 14.6673 11.1109 14.5267C11.2516 14.3862 11.3307 14.1955 11.3308 13.9966C11.3308 13.7976 11.2517 13.6071 11.1111 13.4662C10.9704 13.3256 10.7797 13.2466 10.5808 13.2465H5.33208Z" fill="white"/>
</g>
</g>
<defs>
<clipPath id="clip0_5399_1609">
<rect width="24" height="24" fill="white" transform="translate(0.833252 0.5)"/>
</clipPath>
</defs>
</svg>
