<svg width="24" height="24" viewBox="0 0 24 24" fill="none" xmlns="http://www.w3.org/2000/svg">
<g clip-path="url(#clip0_5236_66243)">
<path d="M24 0C16.08 0 8.16 0 0 0C0 7.92 0 15.84 0 24C7.92 24 15.84 24 24 24C24 16.08 24 8.16 24 0Z" fill="#FF9F0E"/>
<path d="M20.6934 6.82617C14.9558 6.82617 9.21816 6.82617 3.30669 6.82617C3.30669 10.2406 3.30669 13.655 3.30669 17.1728C9.04429 17.1728 14.7819 17.1728 20.6934 17.1728C20.6934 13.7584 20.6934 10.344 20.6934 6.82617Z" fill="#FF9F0D"/>
<path d="M20.6934 6.82617C14.9558 6.82617 9.21816 6.82617 3.30669 6.82617C3.30669 10.2406 3.30669 13.655 3.30669 17.1728C9.04429 17.1728 14.7819 17.1728 20.6934 17.1728C20.6934 13.7584 20.6934 10.344 20.6934 6.82617ZM19.52 7.99951C19.52 10.6395 19.52 13.2795 19.52 15.9995C14.5568 15.9995 9.59363 15.9995 4.48003 15.9995C4.48003 13.3595 4.48003 10.7195 4.48003 7.99951C9.44323 7.99951 14.4064 7.99951 19.52 7.99951Z" fill="#FFF8EE"/>
<path d="M12.5867 8.64062C12.1995 8.64062 11.8123 8.64062 11.4134 8.64062C11.4134 8.81662 11.4134 8.99262 11.4134 9.17396C11.2451 9.18716 11.2451 9.18716 11.0734 9.20063C10.5638 9.30086 10.2968 9.48161 9.99335 9.90062C9.88975 10.2303 9.90683 10.5378 9.92002 10.8806C10.3072 10.8806 10.6944 10.8806 11.0934 10.8806C11.0934 10.7046 11.0934 10.5286 11.0934 10.3473C11.6918 10.3473 12.2902 10.3473 12.9067 10.3473C12.9067 10.6993 12.9067 11.0513 12.9067 11.414C12.6868 11.4065 12.6868 11.4065 12.4625 11.399C12.2684 11.395 12.0742 11.3911 11.88 11.3873C11.7354 11.3819 11.7354 11.3819 11.5879 11.3765C10.9782 11.3676 10.6063 11.4139 10.1334 11.8406C9.74382 12.3653 9.86202 13.1441 9.92002 13.7606C10.0519 14.1519 10.2804 14.3497 10.6067 14.6006C10.9005 14.7296 11.0962 14.7478 11.4134 14.7206C11.4134 14.8966 11.4134 15.0726 11.4134 15.254C11.8006 15.254 12.1878 15.254 12.5867 15.254C12.5867 15.078 12.5867 14.902 12.5867 14.7206C12.7165 14.7162 12.8463 14.7118 12.98 14.7073C13.3484 14.6635 13.5163 14.5872 13.7534 14.3006C14.0735 13.8253 14.0906 13.5879 14.08 13.014C13.6928 13.014 13.3056 13.014 12.9067 13.014C12.9067 13.19 12.9067 13.366 12.9067 13.5473C12.3083 13.5473 11.7099 13.5473 11.0934 13.5473C11.0934 13.1953 11.0934 12.8433 11.0934 12.4806C11.2489 12.4856 11.4044 12.4905 11.5646 12.4956C11.7697 12.4996 11.9749 12.5035 12.18 12.5073C12.2824 12.5109 12.3848 12.5144 12.4902 12.5181C13.2504 12.5286 13.2504 12.5286 13.6588 12.2923C14.1533 11.7254 14.1246 11.2306 14.1146 10.4931C14.0691 10.0207 13.9805 9.83042 13.6534 9.49396C13.2646 9.23482 13.044 9.26337 12.5867 9.28062C12.5867 9.06942 12.5867 8.85822 12.5867 8.64062Z" fill="#FFFAF5"/>
<path d="M16.32 11.3071C16.0666 11.4805 16.0666 11.4805 15.8933 11.7338C15.9002 12.0724 15.9502 12.288 16.12 12.5805C16.4511 12.7681 16.7107 12.6777 17.0666 12.5871C17.28 12.2671 17.28 12.2671 17.26 11.8871C17.131 11.3415 16.8488 11.2297 16.32 11.3071Z" fill="#FFF6EA"/>
<path d="M7.29998 11.3203C6.93332 11.4136 6.93332 11.4136 6.71998 11.7336C6.66524 12.0894 6.68561 12.2199 6.89998 12.5136C7.14665 12.6936 7.14665 12.6936 7.41332 12.7536C7.67998 12.6936 7.67998 12.6936 7.93332 12.4603C8.10665 12.1603 8.10665 12.1603 8.09998 11.8803C7.91449 11.4104 7.82615 11.3018 7.29998 11.3203Z" fill="#FFF6EC"/>
</g>
<defs>
<clipPath id="clip0_5236_66243">
<rect width="24" height="24" rx="2" transform="matrix(-1 0 0 1 24 0)" fill="white"/>
</clipPath>
</defs>
</svg>
