<svg width="24" height="24" viewBox="0 0 24 24" fill="none" xmlns="http://www.w3.org/2000/svg">
<g clip-path="url(#clip0_5710_45191)">
<path fill-rule="evenodd" clip-rule="evenodd" d="M12 0C5.38125 0 0 5.38125 0 12C0 18.6187 5.38125 24 12 24C18.6187 24 24 18.6187 24 12C24 5.38125 18.6187 0 12 0Z" fill="#4BAE4F"/>
<path fill-rule="evenodd" clip-rule="evenodd" d="M17.8032 7.95488C18.0938 8.24551 18.0938 8.72363 17.8032 9.01426L10.772 16.0455C10.6267 16.1908 10.4345 16.2658 10.2423 16.2658C10.0501 16.2658 9.85791 16.1908 9.7126 16.0455L6.19697 12.5299C5.90635 12.2393 5.90635 11.7611 6.19697 11.4705C6.4876 11.1799 6.96572 11.1799 7.25635 11.4705L10.2423 14.4564L16.7438 7.95488C17.0345 7.65957 17.5126 7.65957 17.8032 7.95488Z" fill="white"/>
</g>
<defs>
<clipPath id="clip0_5710_45191">
<rect width="24" height="24" fill="white"/>
</clipPath>
</defs>
</svg>
