<svg width="17" height="16" viewBox="0 0 17 16" fill="none" xmlns="http://www.w3.org/2000/svg">
<path fill-rule="evenodd" clip-rule="evenodd" d="M8.84521 0C13.2635 0 16.8452 3.58172 16.8452 8C16.8452 12.4183 13.2635 16 8.84521 16C4.42694 16 0.845215 12.4183 0.845215 8C0.845215 3.58172 4.42694 0 8.84521 0ZM8.84521 1.9997C5.53151 1.9997 2.84521 4.686 2.84521 7.9997C2.84521 11.3134 5.53151 13.9997 8.84521 13.9997C12.1589 13.9997 14.8452 11.3134 14.8452 7.9997C14.8452 4.686 12.1589 1.9997 8.84521 1.9997ZM11.2645 5.03916L7.53152 8.77213L6.05232 7.29293L5.95811 7.20974C5.56582 6.90472 4.99859 6.93245 4.63811 7.29293C4.24758 7.68346 4.24758 8.31662 4.63811 8.70715L6.82441 10.8934L6.91862 10.9766C7.31091 11.2817 7.87814 11.2539 8.23862 10.8934L12.6787 6.45337L12.7619 6.35916C13.0669 5.96687 13.0392 5.39964 12.6787 5.03916C12.2882 4.64863 11.655 4.64863 11.2645 5.03916Z" fill="#545454"/>
</svg>
