<svg width="25" height="25" viewBox="0 0 25 25" fill="none" xmlns="http://www.w3.org/2000/svg">
<path d="M8.38403 4.36687L8.77953 5.00412L8.38403 4.36687ZM16.616 4.36687L16.2205 5.00412H16.2205L16.616 4.36687ZM18.616 5.60812L19.0115 4.97088L18.616 5.60812ZM6.38403 5.60813L6.77953 6.24537L6.38403 5.60813ZM15.5 19.25C15.9142 19.25 16.25 18.9142 16.25 18.5C16.25 18.0858 15.9142 17.75 15.5 17.75V19.25ZM9.5 17.75C9.08579 17.75 8.75 18.0858 8.75 18.5C8.75 18.9142 9.08579 19.25 9.5 19.25V17.75ZM14.5 21.75H10.5V23.25H14.5V21.75ZM6.77953 6.24537L8.77953 5.00412L7.98854 3.72962L5.98854 4.97088L6.77953 6.24537ZM16.2205 5.00412L18.2205 6.24537L19.0115 4.97088L17.0115 3.72962L16.2205 5.00412ZM3.25 14.225V12.7039H1.75V14.225H3.25ZM21.75 12.7039V14.225H23.25V12.7039H21.75ZM8.77953 5.00412C9.79529 4.37371 10.5095 3.93153 11.1065 3.6412C11.6882 3.35833 12.1002 3.25 12.5 3.25V1.75C11.7919 1.75 11.1485 1.95282 10.4506 2.29224C9.76794 2.62419 8.97813 3.11545 7.98854 3.72962L8.77953 5.00412ZM17.0115 3.72962C16.0219 3.11545 15.2321 2.62419 14.5494 2.29224C13.8515 1.95282 13.2081 1.75 12.5 1.75V3.25C12.8998 3.25 13.3118 3.35833 13.8935 3.64119C14.4905 3.93153 15.2047 4.37371 16.2205 5.00412L17.0115 3.72962ZM10.5 21.75C8.59247 21.75 7.23983 21.7483 6.21422 21.6057C5.21286 21.4664 4.63514 21.2058 4.21079 20.7669L3.13236 21.8094C3.87958 22.5824 4.83046 22.9277 6.00761 23.0914C7.16051 23.2517 8.63629 23.25 10.5 23.25V21.75ZM1.75 14.225C1.75 16.1549 1.74851 17.6753 1.9027 18.8616C2.05937 20.067 2.38856 21.0401 3.13236 21.8094L4.21079 20.7669C3.78301 20.3244 3.52641 19.7163 3.39019 18.6683C3.25149 17.6012 3.25 16.1959 3.25 14.225H1.75ZM14.5 23.25C16.3637 23.25 17.8395 23.2517 18.9924 23.0914C20.1695 22.9277 21.1204 22.5824 21.8676 21.8094L20.7892 20.7669C20.3649 21.2058 19.7871 21.4664 18.7858 21.6057C17.7602 21.7483 16.4075 21.75 14.5 21.75V23.25ZM21.75 14.225C21.75 16.1959 21.7485 17.6012 21.6098 18.6683C21.4736 19.7163 21.217 20.3244 20.7892 20.7669L21.8676 21.8094C22.6114 21.0401 22.9406 20.067 23.0973 18.8616C23.2515 17.6753 23.25 16.1549 23.25 14.225H21.75ZM18.2205 6.24537C19.1813 6.84169 19.8559 7.26135 20.3591 7.6467C20.8487 8.02164 21.1303 8.33106 21.3229 8.68285L22.6387 7.96263C22.3121 7.36589 21.8599 6.90669 21.2711 6.45581C20.6959 6.01533 19.9477 5.55194 19.0115 4.97088L18.2205 6.24537ZM23.25 12.7039C23.25 11.5736 23.2508 10.6745 23.1818 9.9407C23.1114 9.19174 22.9646 8.55812 22.6387 7.96263L21.3229 8.68285C21.5162 9.03589 21.629 9.44865 21.6884 10.081C21.7492 10.7286 21.75 11.5458 21.75 12.7039H23.25ZM5.98854 4.97088C5.05228 5.55195 4.30406 6.01533 3.7289 6.45581C3.14015 6.90669 2.68795 7.36589 2.36131 7.96263L3.67709 8.68285C3.86965 8.33106 4.15133 8.02164 4.64092 7.6467C5.1441 7.26135 5.81869 6.84169 6.77953 6.24537L5.98854 4.97088ZM3.25 12.7039C3.25 11.5458 3.25076 10.7286 3.31161 10.081C3.37103 9.44865 3.48385 9.03589 3.67709 8.68285L2.36131 7.96263C2.03535 8.55812 1.88857 9.19174 1.81819 9.9407C1.74924 10.6745 1.75 11.5736 1.75 12.7039H3.25ZM15.5 17.75H9.5V19.25H15.5V17.75Z" fill="black"/>
</svg>
