<svg width="55" height="55" viewBox="0 0 55 55" fill="none" xmlns="http://www.w3.org/2000/svg">
<path d="M27.5005 0C18.5075 0 11.1375 7.348 11.1375 16.3163C11.1375 19.7912 12.2474 23.0208 14.1256 25.6751L25.5035 45.3447C27.0968 47.4265 28.1561 47.0311 29.4811 45.2348L42.0309 23.8783C42.2839 23.4195 42.4831 22.9311 42.6563 22.4323C43.4527 20.4916 43.8622 18.414 43.8619 16.3163C43.8625 7.348 36.4946 0 27.5005 0ZM27.5005 7.645C32.3438 7.645 36.1949 11.4873 36.1949 16.3163C36.1949 21.1453 32.3438 24.986 27.5005 24.986C22.6578 24.986 18.805 21.1458 18.805 16.3163C18.805 11.4873 22.6578 7.645 27.5005 7.645Z" fill="#D31C22"/>
<path d="M37.9022 26.8994L37.8757 26.9687C37.884 26.9478 37.8906 26.9264 37.8988 26.9055L37.9022 26.8994ZM18.7033 37.9814C10.934 39.0792 5.5 41.7054 5.5 45.5714C5.5 50.7788 14.5794 55 27.5 55C40.4206 55 49.5 50.7788 49.5 45.5714C49.5 41.7054 44.0666 39.0792 36.2978 37.9814L35.2215 39.814C41.0768 40.6263 45.1 42.3335 45.1 44.3146C45.1 47.0921 37.2201 49.3433 27.5 49.3433C17.7799 49.3433 9.9 47.0921 9.9 44.3146C9.89945 42.3401 13.8963 40.6346 19.7698 39.8189C19.415 39.2062 19.0586 38.5946 18.7033 37.9814Z" fill="#D31C22"/>
</svg>
