<svg width="24" height="24" viewBox="0 0 24 24" fill="none" xmlns="http://www.w3.org/2000/svg">
<path fill-rule="evenodd" clip-rule="evenodd" d="M3.06755 0C1.37709 0 0 1.377 0 3.0675V20.9325C0 22.6229 1.37709 24 3.06755 24H20.9325C22.6229 24 24 22.6229 24 20.9325V3.06745C24 1.377 22.6229 0 20.9325 0H3.06755ZM3.06755 1.03125H20.9325C22.0695 1.03125 22.9688 1.93045 22.9688 3.0675V20.9325C22.9688 22.0695 22.0695 22.9688 20.9325 22.9688H3.0675C1.93055 22.9688 1.03125 22.0695 1.03125 20.9325V3.06745C1.03125 1.93045 1.93055 1.03125 3.06755 1.03125Z" fill="black"/>
<path fill-rule="evenodd" clip-rule="evenodd" d="M4.34383 16.5887C3.36039 16.5887 2.55212 17.3969 2.55212 18.3803C2.55212 19.3638 3.36044 20.172 4.34383 20.172C5.32726 20.172 6.13553 19.3638 6.13553 18.3803C6.13553 17.3969 5.32722 16.5887 4.34383 16.5887ZM4.34383 17.6199C4.76992 17.6199 5.10428 17.9542 5.10428 18.3803C5.10428 18.8064 4.76992 19.1408 4.34383 19.1408C3.91773 19.1408 3.58337 18.8064 3.58337 18.3803C3.58337 17.9542 3.91773 17.6199 4.34383 17.6199ZM4.34383 10.2081C3.36039 10.2081 2.55212 11.0165 2.55212 11.9998C2.55212 12.9833 3.36044 13.7915 4.34383 13.7915C5.32726 13.7915 6.13553 12.9832 6.13553 11.9998C6.13553 11.0164 5.32722 10.2081 4.34383 10.2081ZM4.34383 11.2394C4.76992 11.2394 5.10428 11.5738 5.10428 11.9998C5.10428 12.4259 4.76992 12.7603 4.34383 12.7603C3.91773 12.7603 3.58337 12.4259 3.58337 11.9998C3.58337 11.5738 3.91773 11.2394 4.34383 11.2394ZM4.34383 3.82812C3.36039 3.82812 2.55212 4.63639 2.55212 5.61983C2.55212 6.60322 3.36044 7.41148 4.34383 7.41148C5.32726 7.41148 6.13553 6.60322 6.13553 5.61983C6.13553 4.63639 5.32722 3.82812 4.34383 3.82812ZM4.34383 4.85938C4.76992 4.85938 5.10428 5.19373 5.10428 5.61983C5.10428 6.04592 4.76992 6.38023 4.34383 6.38023C3.91773 6.38023 3.58337 6.04588 3.58337 5.61983C3.58337 5.19373 3.91773 4.85938 4.34383 4.85938ZM9.448 16.5887C8.46433 16.5887 7.65639 17.3966 7.65639 18.3802V18.3804C7.65639 19.364 8.46433 20.172 9.44795 20.172H19.6566C20.6402 20.172 21.4481 19.364 21.4481 18.3805V18.3802C21.4481 17.3966 20.6402 16.5887 19.6566 16.5887H9.448ZM9.448 17.6199H19.6566C20.0867 17.6199 20.4169 17.9501 20.4169 18.3802V18.3804C20.4169 18.8106 20.0867 19.1408 19.6566 19.1408H9.448C9.01783 19.1408 8.68764 18.8106 8.68764 18.3805V18.3802C8.68764 17.9501 9.01783 17.6199 9.44795 17.6199H9.448ZM9.448 10.2081C8.46433 10.2081 7.65639 11.0162 7.65639 11.9998V11.9999C7.65639 12.9836 8.46433 13.7915 9.44795 13.7915H19.6565C20.6401 13.7915 21.4482 12.9836 21.4482 11.9999V11.9998C21.4482 11.0162 20.6401 10.2081 19.6565 10.2081H9.448ZM9.448 11.2394H19.6564C20.0867 11.2394 20.4169 11.5697 20.4169 11.9998V11.9999C20.4169 12.4301 20.0867 12.7603 19.6565 12.7603H9.448C9.01783 12.7603 8.68764 12.4301 8.68764 11.9999V11.9998C8.68764 11.5697 9.01783 11.2394 9.44795 11.2394H9.448ZM9.448 3.82812C8.46433 3.82812 7.65639 4.63606 7.65639 5.61969V5.61992C7.65639 6.60355 8.46433 7.41148 9.44795 7.41148H19.6566C20.6402 7.41148 21.4481 6.60355 21.4481 5.61992V5.61973C21.4481 4.63606 20.6402 3.82812 19.6566 3.82812H9.448ZM9.448 4.85938H19.6566C20.0867 4.85938 20.4169 5.18956 20.4169 5.61969V5.61992C20.4169 6.05005 20.0867 6.38023 19.6566 6.38023H9.448C9.01783 6.38023 8.68764 6.05005 8.68764 5.61992V5.61973C8.68764 5.18956 9.01783 4.85938 9.44795 4.85938H9.448Z" fill="black"/>
</svg>
