<svg width="24" height="24" viewBox="0 0 24 24" fill="none" xmlns="http://www.w3.org/2000/svg">
<g clip-path="url(#clip0_3733_15759)">
<path d="M23.4095 10.5752L13.4263 0.592004C12.6389 -0.195382 11.3619 -0.195382 10.5745 0.592004C9.78712 1.37939 9.78712 2.65641 10.5745 3.44379L19.1309 12.0001L10.5745 20.5564C9.78712 21.3438 9.78712 22.6208 10.5745 23.4082C11.3619 24.1955 12.6389 24.1955 13.4263 23.4082L23.4095 13.425C24.1968 12.6396 24.1968 11.3626 23.4095 10.5752ZM11.4059 9.97068L3.48007 1.61723C2.68367 0.7789 1.39371 0.7789 0.597304 1.61723C-0.199101 2.45555 -0.199101 3.81551 0.597304 4.65485L7.08223 11.4895L0.597304 18.3241C-0.199101 19.1625 -0.199101 20.5234 0.597304 21.3618C1.39371 22.2001 2.68367 22.2001 3.48007 21.3618L11.4059 13.0083C12.2023 12.17 12.2023 10.81 11.4059 9.97068Z" fill="white"/>
</g>
<defs>
<clipPath id="clip0_3733_15759">
<rect width="24" height="24" fill="white"/>
</clipPath>
</defs>
</svg>
