<svg width="24" height="24" viewBox="0 0 24 24" fill="none" xmlns="http://www.w3.org/2000/svg">
<path d="M4.49997 19.9999C4.37191 19.9999 4.24872 19.9509 4.15578 19.8628C4.06285 19.7747 4.00726 19.6543 4.00047 19.5264C3.99547 19.4279 3.59247 9.87739 12 8.56339V5.49989C12 5.40261 12.0284 5.30745 12.0817 5.22607C12.135 5.14469 12.2109 5.08062 12.3 5.04172C12.3892 5.00282 12.4878 4.99077 12.5837 5.00705C12.6796 5.02334 12.7686 5.06724 12.84 5.13339L19.84 11.6334C19.8903 11.6803 19.9304 11.737 19.9578 11.8001C19.9852 11.8631 19.9994 11.9311 19.9994 11.9999C19.9994 12.0687 19.9852 12.1367 19.9578 12.1997C19.9304 12.2628 19.8903 12.3195 19.84 12.3664L12.84 18.8664C12.7686 18.9325 12.6796 18.9765 12.5837 18.9927C12.4878 19.009 12.3892 18.997 12.3 18.9581C12.2109 18.9192 12.135 18.8551 12.0817 18.7737C12.0284 18.6923 12 18.5972 12 18.4999V15.4829H11.9915C10.5965 15.4829 6.50897 15.8239 4.96447 19.6859C4.92729 19.7787 4.86317 19.8582 4.78037 19.9141C4.69758 19.9701 4.59991 20 4.49997 19.9999ZM13 6.64639V8.99989C13 9.12236 12.955 9.24056 12.8736 9.33208C12.7922 9.4236 12.6801 9.48207 12.5585 9.49639C6.92347 10.1594 5.47047 14.7359 5.10847 17.4589C7.75747 14.1499 12.4865 14.4974 12.5415 14.5014C12.6665 14.5118 12.783 14.5688 12.868 14.6612C12.9529 14.7535 13 14.8744 13 14.9999V17.3534L18.765 11.9999L13 6.64639Z" fill="white"/>
</svg>
