<svg width="24" height="24" viewBox="0 0 24 24" fill="none" xmlns="http://www.w3.org/2000/svg">
<g clip-path="url(#clip0_5710_46074)">
<path d="M11.8912 12.9788L16.3912 16.3538C16.47 16.4128 16.5597 16.4558 16.6551 16.4803C16.7505 16.5047 16.8498 16.5101 16.9473 16.4962C17.0448 16.4823 17.1386 16.4493 17.2234 16.3991C17.3081 16.3489 17.3822 16.2825 17.4412 16.2037C17.5003 16.125 17.5433 16.0353 17.5678 15.9399C17.5922 15.8445 17.5976 15.7452 17.5837 15.6477C17.5698 15.5502 17.5368 15.4564 17.4866 15.3716C17.4364 15.2869 17.37 15.2128 17.2913 15.1537L13.125 12V5.625C13.125 5.42609 13.046 5.23532 12.9053 5.09467C12.7647 4.95402 12.5739 4.875 12.375 4.875C12.1761 4.875 11.9853 4.95402 11.8447 5.09467C11.704 5.23532 11.625 5.42609 11.625 5.625V12.375C11.625 12.624 11.7292 12.8483 11.8912 12.9788Z" fill="black"/>
<path d="M12.75 0.75C7.26037 0.75 2.57249 4.71225 1.65749 10.125L1.37249 9.70125C1.2611 9.53615 1.08869 9.42207 0.893183 9.38409C0.697676 9.34612 0.495091 9.38736 0.329994 9.49875C0.164897 9.61014 0.0508112 9.78255 0.0128351 9.97806C-0.025141 10.1736 0.016103 10.3762 0.127494 10.5413L1.62749 12.7913C1.68841 12.8839 1.76911 12.9619 1.86378 13.0196C1.95845 13.0773 2.06474 13.1133 2.17499 13.125H2.24999C2.34834 13.1247 2.44566 13.105 2.53639 13.067C2.62711 13.029 2.70947 12.9736 2.77874 12.9037L4.65374 11.0287C4.78763 10.8866 4.86088 10.698 4.85798 10.5028C4.85507 10.3075 4.77623 10.1211 4.63817 9.98307C4.50012 9.84502 4.31371 9.76617 4.11849 9.76327C3.92327 9.76036 3.7346 9.83362 3.59249 9.9675L3.12749 10.4362C3.99112 5.121 8.99999 1.51275 14.3149 2.37637C19.6297 3.24 23.2387 8.2485 22.3751 13.5637C21.6082 18.2835 17.5316 21.7507 12.75 21.75C11.264 21.7769 9.79358 21.4446 8.46364 20.7813C7.1337 20.1179 5.98363 19.1432 5.11124 17.94C5.05412 17.8597 4.98174 17.7915 4.89825 17.7392C4.81475 17.6869 4.72177 17.6516 4.62462 17.6352C4.52747 17.6188 4.42804 17.6218 4.33202 17.6438C4.236 17.6659 4.14526 17.7066 4.06499 17.7638C3.98472 17.8209 3.91649 17.8933 3.86419 17.9767C3.81189 18.0602 3.77655 18.1532 3.76018 18.2504C3.74382 18.3475 3.74675 18.447 3.76881 18.543C3.79086 18.639 3.83162 18.7297 3.88874 18.81C4.89901 20.209 6.23226 21.3433 7.77507 22.1163C9.31788 22.8893 11.0246 23.2783 12.75 23.25C18.9634 23.25 24 18.2134 24 12C24 5.78662 18.9634 0.75 12.75 0.75Z" fill="black"/>
</g>
<defs>
<clipPath id="clip0_5710_46074">
<rect width="24" height="24" fill="white"/>
</clipPath>
</defs>
</svg>
