<svg width="18" height="18" viewBox="0 0 18 18" fill="none" xmlns="http://www.w3.org/2000/svg">
<g clip-path="url(#clip0_5837_40558)">
<path d="M-5.1856e-06 12.0687V12.5521C-3.55244e-05 12.5763 0.00469956 12.6002 0.0139279 12.6225C0.0231563 12.6448 0.0366964 12.6651 0.0537742 12.6822C0.070852 12.6993 0.0911314 12.7128 0.11345 12.722C0.135769 12.7313 0.159689 12.736 0.183841 12.736H0.452942V11.8848H0.183841C0.15969 11.8848 0.135774 11.8895 0.11346 11.8987C0.0911451 11.908 0.0708706 11.9215 0.0537953 11.9386C0.0367201 11.9557 0.0231794 11.9759 0.0139479 11.9983C0.00471637 12.0206 -2.53916e-05 12.0445 -5.1856e-06 12.0687Z" fill="#FFCE31"/>
<path d="M5.95808 10.8066V12.5536H16.468V12.4167H16.7645V11.5499H16.468V10.8066H5.95808Z" fill="#3A556A"/>
<path d="M0.273801 11.5494V12.737C0.273801 12.8046 0.300666 12.8694 0.348487 12.9173C0.396307 12.9651 0.461166 12.992 0.528795 12.992H6.38855V11.5493H0.273801V11.5494Z" fill="#64798A"/>
<path d="M16.6988 11.5498V12.4166H16.9206C16.9527 12.4166 16.9834 12.4039 17.0061 12.3813C17.0287 12.3586 17.0414 12.3279 17.0414 12.2958V11.6706C17.0414 11.6386 17.0287 11.6078 17.0061 11.5852C16.9834 11.5625 16.9527 11.5498 16.9206 11.5498H16.6988Z" fill="#E56353"/>
<path d="M18 4.23389H6.51911V11.3336H18V4.23389Z" fill="#FFCE31"/>
<path d="M0.273801 10.3113V11.602H6.38855V6.04736H3.63912C3.44286 6.04736 3.25444 6.12854 3.12356 6.2748C2.69675 6.75173 2.32852 7.56218 2.02078 8.72373L0.570538 9.74078C0.478891 9.80506 0.404077 9.89046 0.352425 9.98977C0.300773 10.0891 0.273804 10.1994 0.273801 10.3113Z" fill="#E56353"/>
<path d="M2.56216 8.99341H5.12433V6.70508H4.8505C3.58625 6.70508 2.56216 7.72994 2.56216 8.99341Z" fill="#27A2DB"/>
<path d="M4.42115 9.62757C4.51882 9.68238 4.62129 9.71097 4.72853 9.71097C4.83097 9.71097 4.93821 9.68476 5.04541 9.62995L4.9906 9.43457C4.82858 9.52036 4.6618 9.51321 4.4926 9.43457L4.42115 9.62757ZM3.96943 12.2859C3.96943 13.1038 3.30734 13.7659 2.48932 13.7659C1.6716 13.7659 1.00951 13.1038 1.00951 12.2859C1.00951 11.468 1.6716 10.806 2.48932 10.806C3.30734 10.806 3.96943 11.468 3.96943 12.2859Z" fill="#2F4859"/>
<path d="M3.22614 12.2819C3.22614 12.6905 2.89403 13.0225 2.48544 13.0225C2.08539 13.0225 1.75348 12.6904 1.75348 12.2819C1.75348 11.8733 2.08539 11.5498 2.48544 11.5498C2.89403 11.5498 3.22614 11.8733 3.22614 12.2819Z" fill="#64798A"/>
<path d="M3.22614 12.2817C3.22614 12.3398 3.22083 12.3953 3.20507 12.4481C3.10471 12.427 3.00174 12.456 2.94631 12.551C2.8935 12.6435 2.91725 12.7517 2.98855 12.8257C2.90933 12.8996 2.81432 12.9551 2.70865 12.9894C2.67963 12.8917 2.59776 12.8151 2.48948 12.8151C2.38124 12.8151 2.29945 12.8917 2.27035 12.992C2.16468 12.9577 2.06967 12.9022 1.99045 12.8257C2.06175 12.7517 2.08554 12.6461 2.03269 12.551C1.97726 12.456 1.87429 12.4269 1.77393 12.4481C1.75813 12.3953 1.75286 12.3398 1.75286 12.2817C1.75286 12.2263 1.75813 12.1735 1.77135 12.1233C1.87167 12.1471 1.97726 12.1154 2.03269 12.023C2.08819 11.9279 2.06175 11.817 1.99045 11.7431C2.07144 11.6704 2.1668 11.6155 2.27035 11.582C2.30198 11.6824 2.38124 11.759 2.48948 11.759C2.5978 11.759 2.67702 11.6824 2.70865 11.5847C2.81328 11.6175 2.90963 11.6725 2.99121 11.7457C2.91725 11.8223 2.89353 11.9306 2.94635 12.023C2.99916 12.1128 3.1074 12.1444 3.20776 12.1233C3.22083 12.1735 3.22614 12.2263 3.22614 12.2817Z" fill="#EBF0F3"/>
<path d="M16.0956 12.286C16.0956 13.1039 15.4336 13.766 14.6155 13.766C13.7978 13.766 13.1357 13.1039 13.1357 12.286C13.1357 11.4682 13.7978 10.8062 14.6155 10.8062C15.4336 10.8062 16.0956 11.4682 16.0956 12.286Z" fill="#2F4859"/>
<path d="M15.3524 12.2819C15.3524 12.6905 15.0203 13.0225 14.6117 13.0225C14.2116 13.0225 13.8797 12.6904 13.8797 12.2819C13.8797 11.8733 14.2116 11.5498 14.6117 11.5498C15.0203 11.5498 15.3524 11.8733 15.3524 12.2819Z" fill="#64798A"/>
<path d="M15.3523 12.2817C15.3523 12.3398 15.347 12.3953 15.3312 12.4481C15.2309 12.427 15.1279 12.456 15.0725 12.551C15.0197 12.6435 15.0434 12.7517 15.1147 12.8257C15.0355 12.8996 14.9405 12.9551 14.8348 12.9894C14.8058 12.8917 14.7239 12.8151 14.6156 12.8151C14.5074 12.8151 14.4256 12.8917 14.3965 12.992C14.2908 12.9577 14.1958 12.9022 14.1166 12.8257C14.1879 12.7517 14.2117 12.6461 14.1588 12.551C14.1034 12.456 14.0004 12.4269 13.9001 12.4481C13.8843 12.3953 13.879 12.3398 13.879 12.2817C13.879 12.2263 13.8843 12.1735 13.8975 12.1233C13.9978 12.1471 14.1034 12.1154 14.1588 12.023C14.2144 11.9279 14.1879 11.817 14.1166 11.7431C14.1976 11.6704 14.293 11.6155 14.3965 11.582C14.4281 11.6824 14.5074 11.759 14.6156 11.759C14.724 11.759 14.8032 11.6824 14.8348 11.5847C14.9394 11.6175 15.0358 11.6725 15.1174 11.7457C15.0434 11.8223 15.0197 11.9306 15.0725 12.023C15.1253 12.1128 15.2336 12.1444 15.3339 12.1233C15.347 12.1735 15.3523 12.2263 15.3523 12.2817Z" fill="#EBF0F3"/>
<path d="M7.85837 12.181V12.6246C7.85837 12.9234 8.10091 13.166 8.39976 13.166H11.3859C11.6848 13.166 11.9265 12.9234 11.9265 12.6246V12.181C11.9265 11.8821 11.6848 11.6396 11.3859 11.6396H8.39976C8.10091 11.6396 7.85837 11.8821 7.85837 12.181Z" fill="#64798A"/>
<path d="M10.9291 11.6396H8.85601V13.166H10.9291V11.6396Z" fill="#D5D6DB"/>
<path d="M6.13776 11.7314H4.55352V11.9714H6.13776V11.7314ZM6.13776 12.0098H4.55352V12.2499H6.13776V12.0098ZM6.13776 12.2909H4.55352V12.5309H6.13776V12.2909ZM6.13776 12.571H4.55352V12.811H6.13776V12.571Z" fill="#FFCE31"/>
<path d="M17.5171 5.42205V4.95703H7.0021L17.5171 5.42205ZM7.0021 10.1471V10.612H17.5171L7.0021 10.1471Z" fill="#FFCE31"/>
</g>
<defs>
<clipPath id="clip0_5837_40558">
<rect width="18" height="18" fill="white" transform="matrix(-1 0 0 1 18 0)"/>
</clipPath>
</defs>
</svg>
